<svg width="56" height="56" viewBox="0 0 56 56" fill="none" xmlns="http://www.w3.org/2000/svg">
<g clip-path="url(#clip0)">
<path d="M20.7276 19.8853C20.3123 19.8853 19.9756 20.2219 19.9756 20.6372V21.9532C19.9756 22.3685 20.3123 22.7052 20.7276 22.7052C21.1429 22.7052 21.4795 22.3685 21.4795 21.9532V20.6372C21.4795 20.2219 21.1429 19.8853 20.7276 19.8853ZM35.2703 19.8854C34.855 19.8854 34.5184 20.222 34.5184 20.6373V21.9533C34.5184 22.3685 34.855 22.7053 35.2703 22.7053C35.6856 22.7053 36.0223 22.3686 36.0223 21.9533V20.6373C36.0223 20.222 35.6856 19.8854 35.2703 19.8854ZM30.2884 21.2956C29.9757 21.0221 29.5006 21.0541 29.2273 21.3668C28.929 21.708 28.4814 21.9037 27.9989 21.9037C27.5164 21.9037 27.0687 21.708 26.7705 21.3668C26.4971 21.054 26.0221 21.0221 25.7094 21.2955C25.3967 21.5688 25.3648 22.0438 25.6381 22.3566C26.222 23.0245 27.0825 23.4077 27.9989 23.4077C28.9153 23.4077 29.7759 23.0246 30.3597 22.3567C30.633 22.0439 30.6011 21.569 30.2884 21.2956Z" fill="#3E7A59"/>
<path d="M35.5589 8.45956C36.241 8.45956 36.794 7.90656 36.794 7.22441C36.794 6.54225 36.241 5.98926 35.5589 5.98926C34.8767 5.98926 34.3237 6.54225 34.3237 7.22441C34.3237 7.90656 34.8767 8.45956 35.5589 8.45956Z" fill="#3E7A59"/>
<path d="M50.4175 20.0122C49.4913 19.0277 48.1846 18.463 46.8325 18.463C45.5749 18.463 44.3778 18.9377 43.4614 19.7998C43.159 20.0842 42.8518 20.3611 42.5428 20.6327L42.584 20.1927C42.8006 17.8801 42.4744 15.5735 41.6666 13.4566L42.7052 13.0253C43.0888 12.866 43.2706 12.4259 43.1113 12.0424C42.952 11.6589 42.512 11.477 42.1284 11.6364L41.0595 12.0804C40.5863 11.1403 40.0121 10.2503 39.3427 9.42829C39.4145 9.32843 39.4802 9.22325 39.5369 9.11176C39.9022 8.39497 39.8905 7.54524 39.5057 6.83878C39.4032 6.65068 39.3684 6.43111 39.4077 6.22055C39.5413 5.50557 39.3518 4.77535 38.888 4.21708C38.4221 3.6561 37.7401 3.33426 37.017 3.33426C36.645 3.33426 36.2963 3.46981 35.9454 3.27851C35.5869 3.0832 35.1843 2.98002 34.7814 2.98002C33.6831 2.98002 32.7336 3.71927 32.438 4.74858C31.2437 4.37058 30.0092 4.1483 28.7511 4.08503V3.0845C28.7511 2.66921 28.4144 2.33252 27.9991 2.33252C27.5838 2.33252 27.2471 2.66921 27.2471 3.0845V4.08493C24.9746 4.19773 22.8015 4.82177 20.8415 5.91866L20.2751 4.9847C20.0598 4.62956 19.5973 4.51637 19.2421 4.73173C18.887 4.9471 18.7738 5.40952 18.9892 5.76465L19.5682 6.71936C19.3789 6.85221 19.1918 6.98938 19.0075 7.13175C17.3055 8.44741 15.9118 10.1449 14.9365 12.0795L13.8699 11.6365C13.4865 11.4773 13.0462 11.659 12.887 12.0425C12.7277 12.4261 12.9095 12.8661 13.2931 13.0254L14.3301 13.4561C13.5171 15.5888 13.2 17.9056 13.4143 20.1928L13.4555 20.6327C13.1466 20.3612 12.8395 20.0844 12.537 19.7999C11.6207 18.9378 10.4234 18.4631 9.16592 18.4631C7.81376 18.4631 6.50702 19.0278 5.58088 20.0123C3.72179 21.9887 3.81714 25.1092 5.79354 26.9683C9.35722 30.3207 12.518 32.2849 14.6495 33.3763L14.781 34.7791H14.3627C13.0784 34.7791 12.0336 35.824 12.0336 37.1083V39.6C12.0336 40.6635 12.7503 41.5622 13.7259 41.84L15.2919 49.8661C15.7217 52.0689 17.6626 53.6677 19.9069 53.6677H36.0915C38.3358 53.6677 40.2766 52.0689 40.7064 49.8661L42.2724 41.84C43.248 41.5622 43.9648 40.6635 43.9648 39.6V37.1083C43.9648 35.824 42.92 34.7791 41.6357 34.7791H41.2174L41.3488 33.3763C43.4803 32.2849 46.6411 30.3206 50.2048 26.9683C51.1622 26.0677 51.7116 24.8481 51.7518 23.5342C51.7919 22.2204 51.3181 20.9697 50.4175 20.0122ZM6.82425 25.8728C5.45194 24.5819 5.38567 22.4151 6.67667 21.0428C7.32918 20.349 8.21341 19.967 9.16622 19.967C10.0393 19.967 10.8705 20.2967 11.5068 20.8953C12.2079 21.5548 12.9297 22.1843 13.656 22.7698L14.4816 31.5818C12.492 30.4749 9.81101 28.6825 6.82425 25.8728ZM33.1116 6.75446C33.5153 6.37255 33.7815 5.84988 33.8533 5.29883C33.9222 4.76963 34.3831 4.48398 34.7816 4.48398C34.9362 4.48398 35.0857 4.52278 35.2263 4.59929C35.7146 4.86518 36.2934 4.95693 36.84 4.85486C37.4763 4.73594 38.0476 5.31186 37.9296 5.94453C37.827 6.49407 37.9178 7.06718 38.1852 7.55817C38.3348 7.8329 38.3392 8.15033 38.1971 8.42896C38.0606 8.69697 37.7937 8.88767 37.4959 8.92918C36.9383 9.00668 36.4181 9.26266 36.0298 9.67284C35.6958 10.0257 35.1199 10.06 34.7483 9.74533C34.5907 9.61188 34.5122 9.42118 34.4101 9.24702C34.1657 8.83022 33.7894 8.48401 33.3527 8.27656C33.0701 8.14231 32.88 7.88804 32.8311 7.57903C32.783 7.27493 32.888 6.96611 33.1116 6.75446ZM41.6357 36.2831C42.0907 36.2831 42.4608 36.6532 42.4608 37.1083V39.6C42.4608 40.0551 42.0907 40.4253 41.6357 40.4253H36.3897C35.9744 40.4253 35.6377 40.762 35.6377 41.1772C35.6377 41.5925 35.9744 41.9292 36.3897 41.9292H40.7228L39.2304 49.5782C38.9381 51.0763 37.618 52.1637 36.0916 52.1637H19.907C18.3806 52.1637 17.0605 51.0763 16.7682 49.5781L15.2758 41.9291H33.3818C33.797 41.9291 34.1337 41.5924 34.1337 41.1772C34.1337 40.7619 33.797 40.4252 33.3818 40.4252H14.3629C13.9079 40.4252 13.5377 40.055 13.5377 39.5999V37.1082C13.5377 36.6531 13.9079 36.283 14.3629 36.283H20.3474C20.7627 36.283 21.0994 35.9463 21.0994 35.531C21.0994 35.1157 20.7627 34.779 20.3474 34.779H16.2918C16.2918 34.779 16.1084 32.8217 16.1084 32.8214L15.1341 22.4225L14.912 20.0524C14.7206 18.0089 15.0006 15.9397 15.7202 14.0331L16.4942 14.3546C16.8728 14.5118 17.3198 14.3272 17.4771 13.9486C17.6364 13.565 17.4546 13.1249 17.071 12.9657L16.3309 12.6583C17.2026 10.9643 18.432 9.47762 19.9275 8.32148C20.0667 8.2139 20.2078 8.10972 20.3503 8.00826C20.3503 8.00826 20.7864 8.72745 20.7868 8.72795C20.9993 9.07827 21.4696 9.19338 21.8197 8.98092C22.1749 8.76565 22.2881 8.30313 22.0727 7.948L21.6233 7.20705C23.3476 6.25173 25.254 5.70299 27.2474 5.5926V6.55032C27.2474 6.96561 27.5841 7.3023 27.9994 7.3023C28.4147 7.3023 28.7514 6.96561 28.7514 6.55032V5.5923C29.7593 5.64875 30.7504 5.81689 31.713 6.09863C31.7113 6.10124 31.7099 6.10405 31.7082 6.10665C31.3847 6.60366 31.2529 7.2283 31.3457 7.81425C31.4715 8.60884 31.9805 9.28933 32.707 9.63474C32.8994 9.72618 33.0581 9.885 33.1496 10.0774C33.5261 10.8693 34.346 11.4184 35.2225 11.4645C35.9265 11.5015 36.6348 11.2203 37.1201 10.7088C37.1208 10.7081 37.1215 10.7074 37.1222 10.7067C37.2645 10.5543 37.4688 10.45 37.68 10.4225C37.8326 10.4027 37.9846 10.369 38.1307 10.3205C38.7276 11.0448 39.2408 11.8299 39.6667 12.6589L38.9278 12.9658C38.5442 13.125 38.3625 13.5651 38.5218 13.9487C38.6787 14.3266 39.1278 14.5113 39.5047 14.3548L40.2774 14.0338C40.9925 15.9259 41.2805 17.9861 41.0868 20.0525L40.8752 22.3114C40.8752 22.3114 39.8905 32.8215 39.8905 32.8219L39.7071 34.7792H23.3554C22.9401 34.7792 22.6034 35.1159 22.6034 35.5312C22.6034 35.9465 22.9401 36.2831 23.3554 36.2831H41.6357ZM50.2485 23.4883C50.2207 24.4006 49.8392 25.2474 49.1744 25.8728C46.1877 28.6824 43.5068 30.4748 41.5171 31.5817L42.3426 22.7697C43.0694 22.1839 43.7912 21.5543 44.492 20.8952C45.1283 20.2966 45.9595 19.9669 46.8325 19.9669C47.7853 19.9669 48.6695 20.349 49.322 21.0427C49.9473 21.7074 50.2764 22.576 50.2485 23.4883Z" fill="#3E7A59"/>
</g>
<defs>
<clipPath id="clip0">
<rect width="51.3352" height="51.3352" fill="white" transform="translate(2.33252 2.33252)"/>
</clipPath>
</defs>
</svg>
