<svg width="18" height="18" viewBox="0 0 18 18" fill="none" xmlns="http://www.w3.org/2000/svg">
<path d="M16.9812 14.3541L15.5332 3.02442C15.3817 1.85239 14.4388 1 13.3444 1H4.65662C3.56223 1 2.61936 1.87014 2.46783 3.02442L1.01986 14.3541C0.935677 15.0289 1.12088 15.7037 1.5418 16.2009C1.96273 16.7159 2.56885 17 3.20865 17H14.7756C15.4154 17 16.0215 16.7159 16.4424 16.2009C16.8633 15.6859 17.0654 15.0111 16.9812 14.3541ZM15.6511 15.4551C15.4322 15.7214 15.1123 15.8635 14.7756 15.8635H3.20865C2.87192 15.8635 2.55202 15.7037 2.33314 15.4551C2.13109 15.1887 2.03007 14.8513 2.08058 14.4961L3.52855 3.16648C3.61274 2.56271 4.10101 2.11876 4.67346 2.11876H13.3444C13.9169 2.11876 14.4052 2.58047 14.4894 3.16648L15.9205 14.4961C15.971 14.8513 15.87 15.1887 15.6511 15.4551Z" fill="#323232" stroke="#323232" stroke-width="0.25"/>
<path d="M11.4755 4.39185C10.8189 4.39185 10.2801 4.9601 10.2801 5.65267C10.2801 6.14989 10.5495 6.55833 10.9368 6.77142V7.96121C10.9368 9.07997 10.0612 10.0034 9.00051 10.0034C7.93979 10.0034 7.06428 9.07997 7.06428 7.96121V6.77142C7.45152 6.55833 7.72091 6.14989 7.72091 5.65267C7.72091 4.9601 7.18213 4.39185 6.5255 4.39185C5.86886 4.39185 5.33008 4.9601 5.33008 5.65267C5.33008 6.14989 5.59947 6.55833 5.98672 6.77142V7.96121C6.00355 9.7015 7.3505 11.1221 9.00051 11.1221C10.6505 11.1221 11.9975 9.7015 11.9975 7.96121V6.77142C12.3847 6.55833 12.6541 6.14989 12.6541 5.65267C12.6541 4.9601 12.1322 4.39185 11.4755 4.39185Z" fill="#323232" stroke="#323232" stroke-width="0.25"/>
</svg>
