<svg width="605" height="605" viewBox="0 0 605 605" fill="none" xmlns="http://www.w3.org/2000/svg">
<path d="M417.486 200.192C411.829 193.263 409.566 185.343 410.697 176.575C411.829 167.807 415.789 160.594 422.577 155.079C430.072 148.998 437.992 146.311 446.406 147.088C454.821 147.866 461.538 151.473 466.771 157.836C471.438 163.493 473.983 169.292 474.478 175.161C474.973 181.03 473.63 185.343 470.236 188.03C468.822 189.161 467.266 189.727 465.71 189.586C464.155 189.444 462.811 188.666 461.609 187.181C460.478 185.767 459.912 184.212 459.912 182.232C459.841 180.322 460.124 178.343 460.761 176.433C461.326 174.453 461.821 172.544 462.387 170.564C462.953 168.584 463.023 166.534 462.811 164.342C462.599 162.15 461.821 160.241 460.336 158.473C457.932 155.503 454.538 154.089 450.225 154.301C445.911 154.513 441.669 156.352 437.638 159.675C430.709 165.332 426.254 171.766 424.132 178.979C422.011 186.191 422.789 192.202 426.537 196.798C428.517 199.202 430.638 200.899 432.971 201.819L443.083 193.545C443.79 192.98 444.214 192.273 444.426 191.353C444.639 190.434 444.709 189.656 444.568 188.949C444.426 188.242 444.356 187.464 444.356 186.757C444.356 186.05 444.568 185.555 444.921 185.202L445.204 184.919C446.053 184.212 446.901 184.494 447.891 185.626L459.346 199.768C460.266 200.829 460.266 201.677 459.488 202.313L459.205 202.596C458.71 202.95 458.074 203.021 457.154 202.808C456.235 202.596 455.174 202.384 454.114 202.313C452.982 202.172 451.992 202.596 451.003 203.303L442.164 210.445C440.467 211.859 438.275 212.213 435.517 211.577C428.658 210.375 422.718 206.556 417.486 200.192Z" fill="#AAAAAA" fill-opacity="0.15"/>
<path d="M456.59 255.842C455.388 256.479 454.468 257.256 453.903 257.963C453.266 258.741 452.984 259.448 452.984 260.014C452.984 260.58 452.913 261.075 452.771 261.64C452.701 262.135 452.347 262.489 451.852 262.701C450.226 263.337 448.387 260.933 446.478 255.63C445.559 253.155 445.205 251.246 445.418 249.902C445.63 248.559 446.549 247.357 448.175 246.579C444.145 245.66 441.175 242.549 439.195 237.316C437.498 232.649 437.144 228.477 438.205 224.729C439.336 221.052 441.811 218.436 445.913 216.881C449.872 215.325 453.549 215.608 456.873 217.658C460.196 219.709 462.671 222.891 464.227 227.275C465.641 230.952 465.853 234.275 465.075 237.316L466.065 236.892C471.156 234.346 474.55 232.225 476.389 230.386C478.157 228.619 478.652 226.427 477.732 224.093C477.167 222.537 476.177 221.547 474.692 221.053C473.207 220.558 471.722 220.345 470.237 220.416C468.752 220.487 467.338 220.345 465.853 219.85C464.368 219.355 463.449 218.436 462.883 217.022C462.317 215.466 462.317 214.194 462.812 212.85C463.307 211.648 464.227 210.729 465.711 210.234C468.611 209.173 471.51 209.81 474.409 212.284C477.308 214.759 479.571 218.153 481.268 222.679C483.248 228.053 483.46 233.073 481.621 237.599C479.854 242.195 476.46 245.731 471.439 248.347L456.59 255.842ZM444.145 239.437C444.852 241.276 446.125 242.407 448.105 242.973C450.084 243.539 451.994 243.326 453.903 242.549L456.661 241.205C458.923 240.074 460.55 238.73 461.398 237.033C462.247 235.336 462.317 233.568 461.61 231.871C460.974 230.103 459.772 228.901 458.075 228.194C456.378 227.487 454.468 227.558 452.347 228.406C449.377 229.538 447.044 231.164 445.418 233.215C443.791 235.265 443.367 237.387 444.145 239.437Z" fill="#AAAAAA" fill-opacity="0.15"/>
<path d="M494.984 284.48C495.267 287.025 494.772 289.076 493.429 290.702C492.085 292.329 490.176 293.248 487.913 293.531C483.246 294.096 480.701 292.399 480.347 288.652C480.206 287.096 480.418 285.894 481.125 284.904C481.832 283.914 482.681 283.348 483.529 283.066C484.519 282.783 485.297 282.288 486.004 281.722C486.711 281.156 487.065 280.237 486.923 279.247C486.782 277.692 485.65 276.56 483.67 275.994C481.691 275.429 479.357 275.358 476.67 275.641L458.992 277.621C457.932 277.692 457.013 278.186 456.305 279.035C455.598 279.884 454.962 280.661 454.467 281.439C453.972 282.217 453.406 282.641 452.841 282.783L452.487 282.853C451.497 282.995 450.861 282.358 450.719 281.086L448.881 264.539C448.739 263.125 449.164 262.418 450.224 262.347L450.578 262.277C451.214 262.206 452.134 262.701 453.548 263.691C454.891 264.751 456.305 265.176 457.649 264.964L478.296 262.701C479.711 262.559 480.913 261.782 481.903 260.226C482.822 258.741 483.6 257.963 484.236 257.893L484.59 257.822C485.368 257.751 486.216 258.317 486.923 259.448L493.004 269.489C494.065 271.257 493.57 272.317 491.519 272.53L484.873 273.237C490.954 274.792 494.277 278.399 494.984 284.48Z" fill="#AAAAAA" fill-opacity="0.15"/>
<path d="M455.175 339.563C453.832 339.351 452.418 339.775 451.003 340.765C449.589 341.755 448.599 342.179 447.963 342.109L447.68 342.108C446.69 341.967 446.266 341.26 446.407 340.129L448.034 329.168C448.246 327.825 448.953 327.259 450.296 327.471L452.276 327.613C449.519 324.431 448.458 320.4 449.165 315.451C450.014 309.794 452.701 305.127 457.226 301.733C461.751 298.339 467.479 296.995 474.267 297.985C480.702 298.904 485.652 301.733 489.187 306.4C492.723 311.066 494.066 316.228 493.218 322.027C492.652 326.128 490.955 329.381 488.268 331.785L502.339 333.835C503.541 334.047 504.531 333.765 505.38 333.199C506.299 332.563 507.006 331.997 507.643 331.219C508.279 330.583 508.845 330.3 509.481 330.371L509.764 330.371C510.754 330.512 511.32 331.219 511.532 332.563L513.37 344.583C513.795 346.988 513.017 348.048 511.108 347.695L455.175 339.563ZM452.559 318.845C452.276 320.825 452.842 322.663 454.327 324.431C455.812 326.199 458.004 327.259 460.903 327.754L476.389 330.088C479.217 330.512 482.045 329.946 484.732 328.391C487.419 326.835 488.975 324.714 489.329 322.239C489.753 319.552 488.904 317.289 486.924 315.309C484.945 313.329 481.833 312.056 477.732 311.491C474.409 310.854 470.873 310.713 467.338 310.996C463.802 311.279 460.408 312.127 457.58 313.541C454.61 314.673 452.913 316.511 452.559 318.845Z" fill="#AAAAAA" fill-opacity="0.15"/>
<path d="M442.942 380.363C443.437 381.141 443.296 381.848 442.801 382.484C442.235 383.05 441.599 383.12 440.821 382.767C438.134 381.211 436.154 378.383 434.811 374.211C433.467 370.039 433.891 365.514 436.013 360.847C438.629 355.119 442.589 351.301 448.104 349.321C453.549 347.412 459.418 347.765 465.57 350.523C471.297 353.139 475.257 357.24 477.237 362.756C479.217 368.271 479.076 373.787 476.671 379.161C474.479 384.04 471.58 387.363 468.045 388.919C464.509 390.474 461.256 390.616 458.216 389.272C455.67 388.141 454.539 386.161 454.468 383.262L454.397 361.554C448.67 361.624 444.71 364.17 442.518 369.049C441.599 371.1 441.245 373.15 441.316 375.201C441.457 377.181 441.952 378.949 442.942 380.363ZM473.631 375.979C474.621 373.857 474.338 371.736 472.853 369.544C471.368 367.352 469.035 365.584 465.923 364.17C463.307 362.968 460.832 362.19 458.64 361.837L459.206 374.706C459.277 376.474 460.196 377.676 462.034 378.524C463.873 379.373 466.065 379.585 468.54 379.373C471.085 378.949 472.712 377.888 473.631 375.979Z" fill="#AAAAAA" fill-opacity="0.15"/>
<path d="M406.385 418.476C405.254 417.627 403.84 417.203 402.213 417.132C400.587 417.062 399.526 416.85 399.102 416.425L398.819 416.142C398.041 415.506 398.112 414.587 398.961 413.597L408.931 401.93C409.85 400.869 410.628 400.657 411.406 401.293L411.689 401.576C412.113 402 412.537 402.99 412.749 404.617C412.961 406.243 413.669 407.516 414.871 408.435L427.952 418.405C435.023 423.921 440.114 424.911 443.226 421.234C444.781 419.395 445.276 417.486 444.781 415.294C444.286 413.102 442.943 411.051 440.609 409.142L425.265 396.061C424.204 395.141 422.719 394.788 421.022 394.929C419.255 395.141 418.123 395 417.699 394.576L417.416 394.293C416.638 393.656 416.709 392.737 417.558 391.747L428.306 379.161C429.225 378.1 430.003 377.888 430.78 378.524L431.063 378.807C431.488 379.231 431.841 380.292 431.912 382.06C431.983 383.828 432.619 385.171 433.68 386.09L449.448 399.596C450.155 400.162 450.933 400.515 451.711 400.586C452.559 400.728 453.266 400.728 453.832 400.445C454.469 400.233 455.034 400.091 455.741 400.091C456.378 400.02 456.873 400.233 457.297 400.515L457.58 400.798C458.146 401.222 458.146 402.071 457.863 403.344L454.893 414.799C454.61 415.93 454.186 416.496 453.479 416.637C452.913 416.779 452.206 416.496 451.499 415.93L447.68 412.678C449.66 417.769 448.6 422.648 444.569 427.385C441.67 430.85 437.993 432.689 433.68 433.184C429.296 433.608 424.487 431.911 419.184 428.022L406.385 418.476Z" fill="#AAAAAA" fill-opacity="0.15"/>
<path d="M394.646 415.507C395.707 414.729 396.555 414.729 397.121 415.577L397.333 415.931C397.686 416.426 397.757 417.487 397.616 419.184C397.474 420.881 397.757 422.295 398.606 423.426L410.556 439.619C411.475 440.821 412.677 441.599 414.445 441.952C416.142 442.377 417.061 442.73 417.415 443.084L417.627 443.296C417.98 443.791 417.839 444.639 417.273 445.912L411.616 456.943C410.98 458.004 410.273 458.569 409.495 458.64C408.717 458.711 408.081 458.357 407.586 457.721L388.07 431.275C387.221 430.144 385.948 429.437 384.181 429.225C382.484 428.942 381.423 428.588 381.069 428.093L380.857 427.74C380.221 426.962 380.504 426.113 381.564 425.335L394.646 415.507ZM413.596 465.287C414.021 463.166 415.223 461.398 417.344 459.842C419.465 458.287 421.587 457.58 423.779 457.792C425.971 458.004 427.738 459.064 429.153 460.903C430.496 462.671 430.92 464.651 430.496 466.772C430.072 468.893 428.799 470.732 426.678 472.287C424.556 473.843 422.506 474.479 420.314 474.267C418.193 473.984 416.495 472.994 415.081 471.156C413.667 469.318 413.243 467.338 413.596 465.287Z" fill="#AAAAAA" fill-opacity="0.15"/>
<path d="M340.623 454.539C339.916 453.266 338.926 452.276 337.512 451.569C336.098 450.862 335.249 450.154 334.966 449.589L334.825 449.306C334.471 448.387 334.825 447.609 336.168 447.114L350.31 441.033C351.583 440.467 352.361 440.679 352.785 441.669L352.927 441.952C353.139 442.447 352.997 443.578 352.502 445.205C352.008 446.831 352.008 448.245 352.644 449.589L359.927 464.367C363.887 472.428 367.988 475.54 372.372 473.701C374.564 472.782 375.908 471.156 376.473 469.034C377.039 466.913 376.686 464.438 375.483 461.68L367.493 443.083C366.928 441.811 365.796 440.821 364.17 440.184C362.543 439.548 361.553 438.982 361.271 438.417L361.129 438.134C360.776 437.214 361.129 436.437 362.473 435.942L377.676 429.366C378.948 428.8 379.726 429.012 380.15 430.002L380.292 430.285C380.504 430.78 380.292 431.982 379.655 433.608C379.019 435.235 378.948 436.719 379.443 438.063L387.646 457.155C387.999 457.933 388.565 458.64 389.201 459.135C389.838 459.63 390.545 459.913 391.181 459.983C391.818 460.054 392.454 460.266 393.09 460.478C393.656 460.761 394.08 461.044 394.293 461.539L394.434 461.822C394.717 462.387 394.434 463.236 393.585 464.226L385.878 473.206C385.171 474.055 384.464 474.338 383.827 474.267C383.262 474.125 382.696 473.56 382.342 472.782L380.362 468.256C379.938 473.63 376.827 477.59 371.099 480.065C366.928 481.833 362.826 481.974 358.725 480.419C354.624 478.863 351.088 475.186 348.048 469.317L340.623 454.539Z" fill="#AAAAAA" fill-opacity="0.15"/>
<path d="M301.168 493.854C298.905 494.137 297.42 494.066 296.642 493.712C295.865 493.359 295.511 492.723 295.723 491.803C295.794 490.884 296.147 490.248 296.642 489.753C297.208 489.328 298.198 488.904 299.542 488.551C300.956 488.126 301.734 487.914 302.016 487.773C298.339 484.661 296.218 481.126 295.794 477.025C295.44 473.56 296.006 470.449 297.42 467.62C298.905 464.721 301.097 462.388 304.067 460.549C296.784 459.771 292.895 456.731 292.329 451.64C291.905 447.963 293.743 444.71 297.632 441.952C301.592 439.265 306.754 437.497 313.118 436.79C319.482 436.083 324.644 436.72 328.604 438.558C332.493 440.467 334.755 443.154 335.109 446.761C335.25 448.175 334.968 449.306 334.19 450.367C333.412 451.427 332.21 452.064 330.442 452.276C328.886 452.417 327.402 451.922 326.129 450.65C324.856 449.377 323.866 447.963 322.947 446.336C322.028 444.71 320.896 443.296 319.27 442.094C317.573 440.821 315.593 440.397 313.33 440.538C310.643 440.821 308.522 441.811 307.037 443.579C305.623 445.276 304.986 447.326 305.269 449.872C305.835 454.539 307.885 457.014 311.633 457.367C313.189 457.084 314.32 456.943 315.027 456.801C321.038 456.165 326.129 457.296 330.442 460.196C334.755 463.095 337.16 467.055 337.655 472.075C338.22 477.59 336.806 482.257 333.341 486.146C329.806 489.965 324.997 492.228 318.775 492.935C317.148 493.147 314.674 493.218 311.209 493.288C307.815 493.288 304.421 493.43 301.168 493.854ZM325.917 479.146C325.351 474.338 323.866 470.024 321.391 466.135C318.846 462.317 316.371 460.549 313.613 460.903C311.562 461.115 310.007 462.105 308.946 463.873C307.885 465.64 307.532 467.832 307.815 470.519C308.168 473.418 308.875 476.247 310.077 479.146C311.209 481.974 312.764 484.379 314.603 486.217C316.512 488.126 318.421 488.904 320.33 488.692C322.381 488.48 323.795 487.49 324.856 485.722C325.846 484.025 326.199 481.833 325.917 479.146Z" fill="#AAAAAA" fill-opacity="0.15"/>
<path d="M233.638 448.104C233.85 446.761 233.779 445.559 233.567 444.64C233.355 443.72 232.93 443.013 232.506 442.73C232.011 442.377 231.658 442.023 231.375 441.599C231.092 441.175 230.951 440.75 231.092 440.185C231.587 438.558 234.486 438.488 240.001 440.043C242.547 440.751 244.244 441.599 245.234 442.589C246.224 443.579 246.578 444.922 246.365 446.832C249.477 444.145 253.79 443.508 259.164 445.064C263.902 446.407 267.508 448.599 269.912 451.711C272.246 454.751 272.882 458.357 271.68 462.529C270.549 466.631 268.286 469.459 264.609 470.873C261.003 472.358 256.972 472.429 252.517 471.227C248.77 470.166 245.87 468.398 243.891 465.994L243.678 467.055C242.759 472.641 242.476 476.742 242.83 479.217C243.254 481.763 244.668 483.318 247.073 484.025C248.628 484.45 249.972 484.238 251.315 483.318C252.588 482.47 253.649 481.409 254.426 480.066C255.204 478.864 256.194 477.732 257.467 476.884C258.669 475.964 260.013 475.752 261.427 476.177C262.982 476.601 264.043 477.379 264.821 478.581C265.528 479.712 265.669 480.985 265.245 482.399C264.397 485.369 262.205 487.278 258.457 488.197C254.78 489.046 250.679 488.904 246.012 487.632C240.496 486.076 236.395 483.248 233.708 479.146C231.021 475.045 230.173 470.095 231.021 464.58L233.638 448.104ZM254.285 447.822C252.376 447.327 250.679 447.609 249.123 448.882C247.568 450.155 246.507 451.781 246.083 453.761L245.517 456.873C245.093 459.418 245.305 461.469 246.153 463.166C247.002 464.863 248.345 465.923 250.255 466.418C252.093 466.984 253.79 466.701 255.346 465.711C256.901 464.721 257.962 463.095 258.528 460.974C259.376 457.862 259.447 455.105 258.74 452.559C257.821 449.943 256.406 448.387 254.285 447.822Z" fill="#AAAAAA" fill-opacity="0.15"/>
<path d="M189.727 421.587C190.434 420.315 190.575 418.9 190.434 417.345C190.222 415.718 190.292 414.658 190.717 414.092L190.858 413.809C191.424 412.961 192.201 412.89 193.404 413.668L206.344 421.941C207.475 422.648 207.829 423.426 207.263 424.274L207.121 424.557C206.768 425.052 205.849 425.547 204.293 425.971C202.667 426.466 201.535 427.315 200.828 428.588L192.696 442.942C188.171 450.72 187.959 455.882 191.989 458.498C193.969 459.771 196.02 459.983 198.141 459.276C200.192 458.498 202.101 456.872 203.657 454.326L214.475 437.285C215.253 436.083 215.465 434.598 215.041 432.901C214.617 431.204 214.617 430.073 214.9 429.507L215.041 429.224C215.607 428.376 216.385 428.305 217.587 429.083L231.587 437.992C232.719 438.699 233.072 439.477 232.507 440.326L232.365 440.609C232.012 441.104 231.022 441.528 229.254 441.881C227.486 442.235 226.284 443.013 225.506 444.215L214.405 461.68C213.91 462.458 213.698 463.236 213.698 464.085C213.698 464.933 213.839 465.64 214.122 466.206C214.405 466.772 214.617 467.408 214.758 467.974C214.829 468.61 214.829 469.176 214.617 469.529L214.475 469.812C214.122 470.307 213.273 470.59 212 470.449L200.333 469.105C199.202 468.964 198.565 468.61 198.353 467.974C198.141 467.337 198.283 466.63 198.778 465.852L201.465 461.61C196.727 464.226 191.777 463.943 186.474 460.62C182.656 458.216 180.251 454.821 179.191 450.65C178.13 446.336 179.191 441.316 182.302 435.517L189.727 421.587Z" fill="#AAAAAA" fill-opacity="0.15"/>
<path d="M157.908 384.959C158.968 384.04 159.534 382.767 159.817 381.07C160.029 379.303 160.382 378.242 160.807 377.959L161.019 377.747C161.797 377.111 162.574 377.181 163.352 378.1L170.423 386.586C171.343 387.646 171.272 388.566 170.282 389.414L168.868 390.828C173.11 390.828 176.787 392.808 179.969 396.556C183.646 400.94 185.343 406.031 184.848 411.759C184.424 417.416 181.596 422.507 176.292 426.962C171.343 431.063 165.898 432.972 160.17 432.477C154.372 432.053 149.564 429.507 145.887 425.123C143.27 421.941 141.856 418.547 141.856 414.87L130.967 424.062C130.047 424.84 129.553 425.759 129.482 426.82C129.411 427.881 129.411 428.871 129.411 429.719C129.482 430.638 129.27 431.275 128.845 431.699L128.633 431.911C127.855 432.548 126.936 432.477 125.876 431.841L115.693 425.194C113.572 423.921 113.289 422.648 114.845 421.375L157.908 384.959ZM175.161 396.697C173.888 395.142 172.12 394.364 169.787 394.293C167.453 394.223 165.261 395.142 162.928 397.051L150.907 407.092C148.644 408.93 147.301 411.405 146.665 414.446C146.028 417.486 146.594 420.032 148.22 421.941C149.988 423.992 152.251 424.982 155.079 424.699C157.837 424.487 160.877 423.002 164.059 420.385C166.746 418.264 169.151 415.86 171.413 412.89C173.676 409.92 175.161 407.021 176.009 403.91C176.858 400.94 176.575 398.536 175.161 396.697Z" fill="#AAAAAA" fill-opacity="0.15"/>
<path d="M134.219 326.481C135.492 325.916 136.411 325.279 137.047 324.502C137.684 323.724 138.037 323.087 138.037 322.522C138.037 321.956 138.179 321.39 138.32 320.966C138.532 320.471 138.815 320.188 139.31 319.976C140.936 319.481 142.633 321.885 144.331 327.401C145.108 329.876 145.391 331.856 145.038 333.199C144.755 334.613 143.765 335.603 142.068 336.452C146.028 337.583 148.856 340.836 150.553 346.21C152.038 350.947 152.179 355.19 150.836 358.796C149.563 362.473 146.876 364.877 142.704 366.221C138.674 367.564 134.997 367.14 131.885 364.877C128.703 362.685 126.441 359.291 125.027 354.907C123.824 351.16 123.754 347.836 124.673 344.796L123.683 345.22C118.45 347.483 114.915 349.462 113.076 351.16C111.238 352.857 110.602 354.907 111.379 357.382C111.874 358.867 112.864 359.998 114.279 360.564C115.693 361.13 117.178 361.483 118.663 361.413C120.148 361.342 121.562 361.625 122.976 362.19C124.39 362.756 125.309 363.675 125.804 365.16C126.299 366.645 126.299 368.059 125.663 369.261C125.027 370.464 124.037 371.312 122.622 371.736C119.723 372.656 116.824 371.878 114.066 369.261C111.309 366.645 109.258 363.039 107.844 358.513C106.147 352.998 106.288 348.048 108.268 343.523C110.248 338.997 113.854 335.674 119.016 333.34L134.219 326.481ZM145.745 343.523C145.179 341.684 143.906 340.411 141.997 339.775C140.088 339.139 138.179 339.209 136.199 339.917L133.3 341.119C130.895 342.109 129.269 343.452 128.35 345.078C127.431 346.705 127.289 348.402 127.855 350.24C128.421 352.079 129.552 353.352 131.249 354.059C132.875 354.836 134.855 354.836 136.977 354.129C140.017 353.21 142.421 351.654 144.118 349.675C145.886 347.624 146.452 345.644 145.745 343.523Z" fill="#AAAAAA" fill-opacity="0.15"/>
<path d="M142.846 318.28C142.987 319.694 142.563 320.401 141.502 320.472L141.148 320.542C140.512 320.613 139.593 320.118 138.249 319.057C136.906 317.997 135.492 317.573 134.219 317.714L90.5903 321.886C89.0347 322.027 87.7619 322.734 86.6305 324.007C85.4992 325.28 84.7213 325.916 84.2264 325.987L83.8728 326.058C83.1657 326.058 82.5293 325.563 81.9636 324.431L75.3875 313.754C74.8219 312.623 74.6097 311.704 74.9633 311.067C75.2461 310.36 75.8118 310.077 76.6603 309.936L132.946 304.562C134.36 304.42 135.562 303.642 136.623 302.299C137.754 300.885 138.603 300.178 139.169 300.178L139.522 300.107C140.512 299.966 141.078 300.673 141.219 301.945L142.846 318.28Z" fill="#AAAAAA" fill-opacity="0.15"/>
<path d="M141.149 296.218C141.078 297.561 140.512 298.268 139.593 298.198L139.239 298.127C138.674 298.127 137.754 297.49 136.552 296.288C135.35 295.086 134.078 294.379 132.663 294.379L88.8934 292.329C87.4085 292.258 85.9235 292.753 84.6507 293.884C83.378 295.016 82.4587 295.511 82.0345 295.511L81.6809 295.44C80.9738 295.44 80.4081 294.733 79.9839 293.601L75.0341 282.146C74.6805 280.944 74.6099 280.025 74.9634 279.389C75.317 278.752 75.9534 278.54 76.8019 278.54L133.37 281.227C134.714 281.298 136.057 280.661 137.401 279.459C138.744 278.257 139.664 277.621 140.3 277.691L140.654 277.762C141.644 277.762 142.139 278.54 142.068 279.883L141.149 296.218Z" fill="#AAAAAA" fill-opacity="0.15"/>
<path d="M100.915 229.255C101.834 231.164 101.905 233.356 101.198 235.902C100.42 238.377 99.1473 240.215 97.3088 241.346C95.4704 242.478 93.4197 242.69 91.2277 242.054C89.0357 241.417 87.5508 240.074 86.5608 238.094C85.6416 236.043 85.5709 233.851 86.3487 231.376C87.1265 228.901 88.3993 227.063 90.3085 226.002C92.147 224.871 94.1268 224.729 96.3189 225.366C98.3695 226.002 99.9251 227.275 100.915 229.255ZM145.746 257.822C145.321 259.095 144.685 259.59 143.766 259.236L143.412 259.166C142.847 259.024 142.139 258.176 141.291 256.761C140.442 255.347 139.311 254.357 137.967 254.004L118.734 248.205C117.32 247.781 115.764 247.923 114.209 248.63C112.653 249.337 111.663 249.62 111.097 249.478L110.885 249.408C110.32 249.266 109.895 248.418 109.683 247.074L107.633 234.841C107.562 233.639 107.703 232.791 108.269 232.225C108.835 231.659 109.471 231.588 110.39 231.801L141.857 241.346C143.271 241.771 144.614 241.559 146.241 240.781C147.796 239.932 148.857 239.579 149.423 239.862L149.776 239.932C150.766 240.215 151.049 241.064 150.625 242.336L145.746 257.822Z" fill="#AAAAAA" fill-opacity="0.15"/>
<path d="M160.17 223.174C158.332 226.851 155.645 229.255 152.18 230.174C148.715 231.093 144.826 230.457 140.371 228.265L119.795 217.87L117.885 221.618C117.39 222.679 116.542 222.962 115.552 222.396L114.208 221.76C113.077 221.194 112.794 220.345 113.36 219.355L114.35 217.375C115.411 215.183 115.623 212.991 114.986 210.799C114.35 208.607 112.936 206.627 110.744 205.001C109.612 204.153 109.329 203.163 109.754 202.173L110.531 200.546C111.097 199.415 112.087 199.132 113.289 199.769L121.138 203.658L125.805 194.465C126.088 194.041 126.371 193.758 126.866 193.546C127.361 193.334 127.856 193.405 128.28 193.687L129.623 194.324C130.118 194.536 130.401 194.96 130.543 195.384C130.684 195.809 130.613 196.304 130.472 196.728L125.876 205.85L146.594 216.386C148.079 217.163 149.564 217.375 150.837 217.093C152.109 216.81 153.099 216.103 153.736 214.901C155.079 212.143 154.796 209.739 152.887 207.688C152.463 206.84 152.463 206.132 152.958 205.496C153.453 204.86 154.019 204.718 154.796 205.072C157.908 206.627 159.958 209.102 161.231 212.496C162.362 215.891 162.08 219.426 160.17 223.174Z" fill="#AAAAAA" fill-opacity="0.15"/>
<path d="M177.635 197.081C174.029 201.395 170.352 204.223 166.604 205.708C162.786 207.122 159.816 206.981 157.553 205.142C156.351 204.082 155.644 202.95 155.644 201.678C155.644 200.405 156.068 199.132 157.129 197.93C158.19 196.586 159.604 195.879 161.16 195.879C162.786 195.809 164.341 196.091 165.685 196.728C167.099 197.293 168.655 197.576 170.423 197.364C172.12 197.223 173.675 196.374 174.877 194.889C176.079 193.404 176.716 191.919 176.716 190.364C176.716 188.808 176.009 187.394 174.524 186.192C172.897 184.848 171.059 184.424 169.008 184.919C166.958 185.414 164.978 186.404 162.927 187.889C160.877 189.374 158.755 190.788 156.563 192.132C154.371 193.475 151.967 194.182 149.422 194.182C146.805 194.253 144.26 193.263 141.856 191.142C138.886 188.737 137.542 185.414 137.825 181.313C138.037 177.141 139.876 173.04 143.27 168.938C146.735 164.767 150.341 162.009 154.159 160.736C157.978 159.463 160.947 159.746 163.21 161.585C164.2 162.433 164.695 163.494 164.766 164.837C164.836 166.181 164.412 167.312 163.493 168.514C162.432 169.858 161.16 170.423 159.533 170.494C157.978 170.494 156.422 170.211 155.078 169.575C153.735 168.938 152.179 168.656 150.553 168.726C148.927 168.797 147.583 169.433 146.522 170.777C145.462 172.12 145.037 173.535 145.179 175.09C145.32 176.646 146.098 177.989 147.442 179.05C148.785 180.111 150.058 180.676 151.472 180.676C152.886 180.676 154.301 180.394 155.644 179.616C157.058 178.909 158.473 178.06 159.887 177.07C161.372 176.01 162.857 175.09 164.483 174.171C166.109 173.252 167.736 172.474 169.291 171.908C170.918 171.413 172.615 171.272 174.382 171.625C176.15 171.979 178.059 172.898 179.827 174.383C182.656 176.787 183.928 180.04 183.575 184.212C183.363 188.242 181.312 192.556 177.635 197.081Z" fill="#AAAAAA" fill-opacity="0.15"/>
<path d="M214.405 114.632C216.385 113.501 217.799 112.935 218.648 113.077C219.496 113.077 219.991 113.571 220.203 114.491C220.486 115.339 220.416 116.117 220.133 116.683C219.779 117.319 219.072 118.026 217.941 119.016C216.809 119.865 216.173 120.501 215.961 120.713C220.557 122.057 223.81 124.602 225.86 128.209C227.557 131.178 228.264 134.29 228.123 137.542C227.911 140.724 226.85 143.765 224.8 146.664C231.8 144.613 236.538 145.816 239.083 150.341C240.922 153.594 240.497 157.271 237.952 161.372C235.406 165.473 231.305 169.009 225.719 172.191C220.133 175.373 215.183 176.787 210.799 176.645C206.486 176.433 203.374 174.736 201.607 171.696C200.97 170.494 200.758 169.292 201.041 168.019C201.324 166.746 202.243 165.685 203.728 164.766C205.071 163.988 206.698 163.917 208.324 164.554C209.95 165.19 211.506 166.18 212.92 167.312C214.334 168.443 216.032 169.291 218.011 169.716C220.062 170.211 222.113 169.857 224.163 168.797C226.497 167.453 228.052 165.756 228.689 163.564C229.396 161.443 229.042 159.251 227.84 157.059C225.577 152.957 222.608 151.543 219.001 152.604C217.729 153.452 216.739 154.018 216.032 154.442C210.799 157.412 205.637 158.331 200.546 157.341C195.455 156.351 191.636 153.664 189.232 149.28C186.474 144.401 185.979 139.522 187.747 134.643C189.444 129.694 193.051 125.804 198.425 122.693C199.768 121.915 202.101 120.855 205.283 119.37C208.395 117.814 211.506 116.258 214.405 114.632ZM197.364 137.896C199.768 142.139 202.879 145.533 206.556 148.078C210.375 150.624 213.415 151.26 215.749 149.917C217.587 148.927 218.577 147.371 218.86 145.391C219.143 143.411 218.648 141.219 217.304 138.886C215.89 136.34 214.122 134.007 211.93 131.815C209.738 129.623 207.476 128.067 204.93 127.077C202.526 126.087 200.404 126.087 198.637 127.007C196.94 127.996 195.879 129.481 195.596 131.461C195.455 133.3 196.02 135.563 197.364 137.896Z" fill="#AAAAAA" fill-opacity="0.15"/>
<path d="M242.971 149.705C241.699 150.129 240.85 149.846 240.567 148.856L240.496 148.503C240.355 147.937 240.567 146.877 241.345 145.392C242.123 143.907 242.264 142.492 241.911 141.149L229.041 99.2882C228.546 97.8033 227.627 96.6012 226.142 95.8234C224.728 94.9749 223.879 94.2678 223.738 93.8435L223.667 93.4899C223.455 92.8535 223.809 92.0757 224.869 91.2979L233.991 82.7419C234.981 81.8934 235.83 81.6105 236.537 81.752C237.244 81.8934 237.739 82.3884 237.951 83.1662L254.568 137.26C254.992 138.533 255.982 139.664 257.608 140.442C259.164 141.29 260.083 141.927 260.225 142.492L260.295 142.846C260.578 143.836 260.083 144.472 258.811 144.897L242.971 149.705Z" fill="#AAAAAA" fill-opacity="0.15"/>
<path d="M285.186 141.714C278.115 142.28 272.175 140.583 267.296 136.552C262.347 132.593 259.73 127.431 259.235 121.137C258.74 114.844 260.65 109.399 264.751 104.874C268.923 100.419 274.155 97.8736 280.519 97.4493C287.307 96.8836 293.176 98.6514 298.055 102.54C302.934 106.43 305.621 111.662 306.116 117.955C306.611 124.249 304.844 129.693 300.884 134.219C296.924 138.744 291.621 141.219 285.186 141.714ZM286.53 137.684C288.934 137.542 290.772 136.27 291.904 133.865C293.106 131.532 293.53 128.279 293.176 124.249C292.894 120.855 292.186 117.46 290.914 113.925C289.641 110.389 287.944 107.42 285.752 104.945C283.56 102.47 281.297 101.338 278.964 101.551C273.519 101.904 271.185 106.5 271.751 115.127C271.963 118.309 272.741 121.632 274.014 125.168C275.216 128.633 276.984 131.673 279.246 134.219C281.58 136.694 283.913 137.896 286.53 137.684Z" fill="#AAAAAA" fill-opacity="0.15"/>
<path d="M343.027 102.117C345.502 102.612 347.411 103.673 348.472 105.441C349.674 107.208 350.027 109.259 349.532 111.592C348.684 116.259 346.35 118.168 342.673 117.461C341.118 117.178 340.057 116.542 339.35 115.694C338.643 114.704 338.289 113.784 338.289 112.794C338.289 111.804 338.077 110.885 337.724 109.966C337.37 109.047 336.592 108.552 335.532 108.34C333.976 108.057 332.562 108.764 331.501 110.532C330.37 112.229 329.592 114.421 329.097 117.178L325.844 134.715C325.632 135.775 325.844 136.695 326.41 137.685C327.046 138.604 327.612 139.452 328.178 140.159C328.743 140.867 329.097 141.503 328.955 142.069L328.885 142.422C328.743 143.412 327.965 143.766 326.622 143.554L310.429 140.513C309.086 140.301 308.52 139.594 308.732 138.675L308.803 138.321C308.944 137.755 309.651 136.907 311.066 135.917C312.409 134.856 313.258 133.725 313.47 132.381L317.217 111.946C317.5 110.532 317.005 109.188 315.874 107.774C314.743 106.36 314.248 105.441 314.389 104.875L314.46 104.521C314.601 103.673 315.308 103.107 316.652 102.753L328.107 99.7837C330.158 99.2887 331.006 99.9958 330.652 102.046L329.45 108.622C332.562 103.107 337.087 100.986 343.027 102.117Z" fill="#AAAAAA" fill-opacity="0.15"/>
<path d="M401.294 126.3C402.354 126.795 402.708 127.431 402.354 128.351L402.213 128.775C401.93 129.482 400.869 130.118 399.243 130.755C397.617 131.391 396.273 132.169 395.142 133.018L364.312 158.898C362.898 160.17 361.696 161.09 360.776 161.867C359.857 162.645 358.514 163.565 356.746 164.625C355.049 165.757 353.423 166.534 352.008 166.959C350.594 167.383 349.039 167.666 347.2 167.666C345.432 167.736 343.735 167.312 342.18 166.605C338.715 164.979 336.311 162.716 334.967 159.958C333.553 157.13 333.411 154.584 334.401 152.463C335.108 151.049 336.098 150.059 337.301 149.564C338.503 149.069 339.917 149.21 341.472 149.917C343.028 150.624 343.947 151.685 344.301 153.029C344.725 154.443 344.725 155.857 344.442 157.13C344.089 158.473 344.018 159.817 344.089 161.019C344.23 162.292 344.654 163.14 345.644 163.565C348.119 164.767 352.645 162.221 359.221 156.211L358.655 115.764C358.584 114.279 358.302 112.724 357.736 111.027C357.17 109.329 356.958 108.127 357.312 107.491L357.453 107.067C357.877 106.218 358.655 106.006 359.787 106.572L374.848 113.714C375.909 114.208 376.191 114.916 375.696 115.835L375.555 116.118C375.343 116.613 374.777 117.037 374.07 117.461C373.292 117.815 372.727 118.239 372.232 118.734C371.807 119.158 371.524 120.29 371.242 121.987L370.393 148.291L388.849 131.674C390.263 130.118 390.829 128.846 390.616 127.926C390.404 127.007 390.051 125.946 389.414 124.886C388.849 123.754 388.636 122.977 388.849 122.482L388.99 122.199C389.414 121.35 390.192 121.138 391.323 121.562L401.294 126.3Z" fill="#AAAAAA" fill-opacity="0.15"/>
</svg>
