<svg width="242" height="62" viewBox="0 0 242 62" fill="none" xmlns="http://www.w3.org/2000/svg">
<path d="M0.671995 10.1119C1.05599 10.2799 1.43999 10.2079 1.79999 9.89587C1.94399 9.75187 2.11199 9.53587 3.95999 7.42387C4.55999 6.79987 4.87199 6.87187 5.01599 7.71187C5.13599 8.45587 5.25599 9.17587 5.51999 9.84787C5.87999 10.7359 6.86399 10.8559 7.43999 10.0639C7.79999 9.58387 11.4 2.33587 11.616 1.59187C11.76 1.18387 11.544 0.727867 11.184 0.535868C10.176 0.103868 9.71999 1.49587 8.71199 3.60787C7.84799 5.45587 7.29599 6.65587 6.88799 6.58387C6.43199 6.51187 6.50399 5.19187 6.19199 4.63987C5.85599 3.99187 5.23199 3.82387 4.63199 4.18387C4.27199 4.37587 3.69599 5.02387 3.40799 5.26387C3.19199 5.43187 2.90399 5.26387 2.90399 5.02387C2.90399 4.51987 3.31199 2.55187 3.45599 1.71187C3.62399 0.991868 3.26399 0.391867 2.63999 0.367868C2.18399 0.367868 1.84799 0.727867 1.70399 1.44787C1.48799 2.55187 0.719995 6.84787 0.287995 8.35987C0.0239945 9.27187 0.167994 9.87187 0.671995 10.1119Z" fill="white"/>
<path d="M13.4662 10.3039C13.7782 10.3039 16.4182 10.0399 16.8022 9.84787C17.1622 9.65587 17.3542 9.29587 17.2822 8.95987C17.0662 7.85587 16.1542 8.43187 14.6422 8.43187C14.2102 8.43187 14.0182 8.21587 14.0422 7.83187C14.0902 7.51987 14.1382 7.18387 14.2102 6.89587C14.3302 6.46387 14.4982 6.34387 14.9782 6.31987C16.1782 6.19987 17.3542 6.41587 17.3062 5.28787C17.2102 4.44787 16.5142 4.54387 15.4822 4.44787C15.1462 4.39987 15.0022 4.15987 15.0982 3.87187C15.1942 3.48787 15.3142 3.12787 15.4102 2.71987C15.5302 2.23987 15.7942 2.16787 16.2502 2.21587C17.5702 2.43187 19.2742 2.52787 19.1062 1.42387C19.0342 0.439868 17.2822 0.415868 15.6742 0.415868C14.7382 0.367868 14.2582 0.751868 13.8262 1.87987C13.5862 2.45587 12.6982 5.50387 12.4822 6.48787C12.3142 7.27987 12.1462 8.07187 12.1462 8.88787C12.1462 9.77587 12.5782 10.2319 13.4662 10.3039Z" fill="white"/>
<path d="M28.9839 10.7359C29.9919 10.3279 31.8399 8.67187 31.3359 7.73587C31.1439 7.30387 30.6399 7.15987 30.1839 7.37587C29.9199 7.51987 29.1519 8.50387 28.6719 8.86387C28.0239 9.31987 27.4239 9.03187 27.3999 8.26387C27.2799 6.70387 29.2479 1.87987 30.2559 2.09587C30.5919 2.21587 30.4959 2.50387 30.7839 2.86387C31.1679 3.39187 31.9359 3.31987 32.2239 2.74387C32.4639 2.21587 32.2479 1.37587 31.6959 0.727867C30.9519 -0.0881321 30.0639 -0.184132 29.1519 0.463868C27.4719 1.61587 25.6719 5.64787 25.5759 8.07187C25.5039 10.1119 27.1839 11.4079 28.9839 10.7359Z" fill="white"/>
<path d="M38.8159 10.8559C39.2479 10.9279 39.6319 10.6879 39.7519 10.2559C40.0159 9.29587 40.7599 2.64787 40.6399 1.66387C40.5199 0.823868 39.7519 0.463868 38.9839 0.919868C38.1199 1.44787 36.0559 4.18387 35.2159 5.59987L33.1999 8.95987C32.7199 9.70387 32.7439 10.2319 33.1999 10.5199C33.5119 10.7359 33.9199 10.7359 34.2319 10.5199C34.4239 10.3519 34.9999 9.46387 35.4559 8.74387C35.6479 8.45587 35.8159 8.33587 36.0799 8.33587L37.6159 8.40787C37.9279 8.43187 38.1199 8.69587 38.0959 9.00787C38.0959 10.0399 37.9999 10.7359 38.8159 10.8559ZM37.8319 6.60787C37.4239 6.60787 37.2319 6.58387 37.1359 6.36787C36.8959 5.93587 37.9519 4.39987 38.4319 4.61587C38.6479 4.68787 38.6479 4.87987 38.4799 6.07987C38.4319 6.43987 38.1679 6.60787 37.8319 6.60787Z" fill="white"/>
<path d="M42.489 10.1119C42.993 10.2319 43.377 9.89587 43.569 9.22387C43.905 8.04787 44.457 6.27187 45.033 5.09587C45.177 4.80787 45.561 4.83187 45.681 5.14387C46.449 8.26387 46.497 9.03187 46.929 9.63187C47.193 9.99187 47.529 10.1599 47.865 10.1599C48.201 10.1599 48.489 9.94387 48.633 9.58387C48.921 8.83987 49.137 8.19187 49.329 7.63987C50.265 4.97587 50.529 4.15987 51.441 2.38387C51.537 2.16787 51.609 1.97587 51.609 1.80787C51.633 1.25587 51.153 0.919868 50.793 0.919868C50.553 0.919868 50.385 0.991868 50.217 1.11187C49.761 1.49587 49.233 2.81587 48.753 4.13587C48.393 5.09587 48.273 5.57587 47.961 5.57587C47.697 5.57587 47.625 5.40787 47.505 5.04787L47.289 4.15987C47.073 3.07987 46.617 1.42387 46.281 1.01587C46.065 0.751868 45.777 0.607868 45.465 0.631868C44.481 0.631868 43.761 3.19987 42.873 5.69587C42.369 6.99187 41.817 8.86387 41.817 9.19987C41.817 9.65587 42.105 10.0159 42.489 10.1119Z" fill="white"/>
<path d="M52.6609 10.1119C53.1649 10.2319 53.5489 9.89587 53.7409 9.22387C54.0769 8.04787 54.6289 6.27187 55.2049 5.09587C55.3489 4.80787 55.7329 4.83187 55.8529 5.14387C56.6209 8.26387 56.6689 9.03187 57.1009 9.63187C57.3649 9.99187 57.7009 10.1599 58.0369 10.1599C58.3729 10.1599 58.6609 9.94387 58.8049 9.58387C59.0929 8.83987 59.3089 8.19187 59.5009 7.63987C60.4369 4.97587 60.7009 4.15987 61.6129 2.38387C61.7089 2.16787 61.7809 1.97587 61.7809 1.80787C61.8049 1.25587 61.3249 0.919868 60.9649 0.919868C60.7249 0.919868 60.5569 0.991868 60.3889 1.11187C59.9329 1.49587 59.4049 2.81587 58.9249 4.13587C58.5649 5.09587 58.4449 5.57587 58.1329 5.57587C57.8689 5.57587 57.7969 5.40787 57.6769 5.04787L57.4609 4.15987C57.2449 3.07987 56.7889 1.42387 56.4529 1.01587C56.2369 0.751868 55.9489 0.607868 55.6369 0.631868C54.6529 0.631868 53.9329 3.19987 53.0449 5.69587C52.5409 6.99187 51.9889 8.86387 51.9889 9.19987C51.9889 9.65587 52.2769 10.0159 52.6609 10.1119Z" fill="white"/>
<path d="M65.82 9.89587C67.212 8.71987 67.98 6.60787 68.364 4.59187C68.556 3.53587 68.34 2.19187 67.596 1.78387C67.38 1.68787 67.212 1.56787 67.02 1.32787C66.612 0.847868 66.228 0.751868 65.604 0.991868C65.22 1.18387 64.836 1.47187 64.5 1.83187C62.652 3.84787 61.452 7.42387 62.772 9.46387C63.54 10.6159 64.764 10.8079 65.82 9.89587ZM64.524 8.43187C64.14 8.38387 63.996 7.95187 63.996 7.27987C63.996 5.69587 64.692 4.37587 65.628 3.24787C66.012 2.86387 66.372 2.76787 66.54 3.22387C66.9 4.42387 65.484 8.59987 64.524 8.43187Z" fill="white"/>
<path d="M71.9471 10.4719C72.4511 10.7359 73.0031 10.4239 73.2911 9.72787C73.9631 7.95187 74.6591 5.33587 75.2351 2.98387C75.4751 2.09587 75.5471 2.02387 76.4831 2.02387C76.9631 2.02387 77.7551 1.99987 78.3311 1.95187C78.7871 1.90387 79.0991 1.51987 79.0991 1.11187C79.0991 0.535868 78.6431 0.247868 77.7071 0.247868C73.0271 0.223868 71.7791 0.271868 70.0991 0.607868C69.4751 0.703868 69.0431 1.25587 69.2111 1.73587C69.3311 2.14387 69.5711 2.33587 69.8591 2.33587C70.4351 2.33587 71.8031 2.09587 73.0991 2.09587C73.3631 2.09587 73.4591 2.28787 73.4591 2.50387C73.4591 3.29587 72.2351 7.47187 71.6351 9.05587C71.3471 9.77587 71.4431 10.2079 71.9471 10.4719Z" fill="white"/>
<path d="M89.4527 10.7359C90.4607 10.3279 92.3087 8.67187 91.8047 7.73587C91.6127 7.30387 91.1087 7.15987 90.6527 7.37587C90.3887 7.51987 89.6207 8.50387 89.1407 8.86387C88.4927 9.31987 87.8927 9.03187 87.8687 8.26387C87.7487 6.70387 89.7167 1.87987 90.7247 2.09587C91.0607 2.21587 90.9647 2.50387 91.2527 2.86387C91.6367 3.39187 92.4047 3.31987 92.6927 2.74387C92.9327 2.21587 92.7167 1.37587 92.1647 0.727867C91.4207 -0.0881321 90.5327 -0.184132 89.6207 0.463868C87.9407 1.61587 86.1407 5.64787 86.0447 8.07187C85.9727 10.1119 87.6527 11.4079 89.4527 10.7359Z" fill="white"/>
<path d="M97.2262 9.89587C98.6182 8.71987 99.3862 6.60787 99.7702 4.59187C99.9622 3.53587 99.7462 2.19187 99.0022 1.78387C98.7862 1.68787 98.6182 1.56787 98.4262 1.32787C98.0182 0.847868 97.6342 0.751868 97.0102 0.991868C96.6262 1.18387 96.2422 1.47187 95.9062 1.83187C94.0582 3.84787 92.8582 7.42387 94.1782 9.46387C94.9462 10.6159 96.1702 10.8079 97.2262 9.89587ZM95.9302 8.43187C95.5462 8.38387 95.4022 7.95187 95.4022 7.27987C95.4022 5.69587 96.0983 4.37587 97.0342 3.24787C97.4183 2.86387 97.7782 2.76787 97.9462 3.22387C98.3062 4.42387 96.8902 8.59987 95.9302 8.43187Z" fill="white"/>
<path d="M101.434 10.1119C101.938 10.2319 102.322 9.89587 102.514 9.22387C102.85 8.04787 103.402 6.27187 103.978 5.09587C104.122 4.80787 104.506 4.83187 104.626 5.14387C105.394 8.26387 105.442 9.03187 105.874 9.63187C106.138 9.99187 106.474 10.1599 106.81 10.1599C107.146 10.1599 107.434 9.94387 107.578 9.58387C107.866 8.83987 108.082 8.19187 108.274 7.63987C109.21 4.97587 109.474 4.15987 110.386 2.38387C110.482 2.16787 110.554 1.97587 110.554 1.80787C110.578 1.25587 110.098 0.919868 109.738 0.919868C109.498 0.919868 109.33 0.991868 109.162 1.11187C108.706 1.49587 108.178 2.81587 107.698 4.13587C107.338 5.09587 107.218 5.57587 106.906 5.57587C106.642 5.57587 106.57 5.40787 106.45 5.04787L106.234 4.15987C106.018 3.07987 105.562 1.42387 105.226 1.01587C105.01 0.751868 104.722 0.607868 104.41 0.631868C103.426 0.631868 102.706 3.19987 101.818 5.69587C101.314 6.99187 100.762 8.86387 100.762 9.19987C100.762 9.65587 101.05 10.0159 101.434 10.1119Z" fill="white"/>
<path d="M114.486 10.4719C114.99 10.7359 115.542 10.4239 115.83 9.72787C116.502 7.95187 117.198 5.33587 117.774 2.98387C118.014 2.09587 118.086 2.02387 119.022 2.02387C119.502 2.02387 120.294 1.99987 120.87 1.95187C121.326 1.90387 121.638 1.51987 121.638 1.11187C121.638 0.535868 121.182 0.247868 120.246 0.247868C115.566 0.223868 114.318 0.271868 112.638 0.607868C112.014 0.703868 111.582 1.25587 111.75 1.73587C111.87 2.14387 112.11 2.33587 112.398 2.33587C112.974 2.33587 114.342 2.09587 115.638 2.09587C115.902 2.09587 115.998 2.28787 115.998 2.50387C115.998 3.29587 114.774 7.47187 114.174 9.05587C113.886 9.77587 113.982 10.2079 114.486 10.4719Z" fill="white"/>
<path d="M124.902 10.8559C125.334 10.9279 125.718 10.6879 125.838 10.2559C126.102 9.29587 126.846 2.64787 126.726 1.66387C126.606 0.823868 125.838 0.463868 125.07 0.919868C124.206 1.44787 122.142 4.18387 121.302 5.59987L119.286 8.95987C118.806 9.70387 118.83 10.2319 119.286 10.5199C119.598 10.7359 120.006 10.7359 120.318 10.5199C120.51 10.3519 121.086 9.46387 121.542 8.74387C121.734 8.45587 121.902 8.33587 122.166 8.33587L123.702 8.40787C124.014 8.43187 124.206 8.69587 124.182 9.00787C124.182 10.0399 124.086 10.7359 124.902 10.8559ZM123.918 6.60787C123.51 6.60787 123.318 6.58387 123.222 6.36787C122.982 5.93587 124.038 4.39987 124.518 4.61587C124.734 4.68787 124.734 4.87987 124.566 6.07987C124.518 6.43987 124.254 6.60787 123.918 6.60787Z" fill="white"/>
<path d="M128.455 7.30387C128.071 8.40787 127.519 9.75187 128.551 10.0159C129.463 10.3279 129.727 9.12787 130.375 7.25587C130.927 5.64787 131.551 4.13587 131.911 2.47987C132.127 1.51987 131.959 0.991868 131.383 0.871868C130.999 0.775868 130.591 1.01587 130.375 1.47187C130.183 1.97587 129.295 5.16787 128.455 7.30387Z" fill="white"/>
<path d="M133.122 10.1119C133.626 10.2319 134.01 9.89587 134.202 9.22387C134.538 8.04787 135.09 6.27187 135.666 5.09587C135.81 4.80787 136.194 4.83187 136.314 5.14387C137.082 8.26387 137.13 9.03187 137.562 9.63187C137.826 9.99187 138.162 10.1599 138.498 10.1599C138.834 10.1599 139.122 9.94387 139.266 9.58387C139.554 8.83987 139.77 8.19187 139.962 7.63987C140.898 4.97587 141.162 4.15987 142.074 2.38387C142.17 2.16787 142.242 1.97587 142.242 1.80787C142.266 1.25587 141.786 0.919868 141.426 0.919868C141.186 0.919868 141.018 0.991868 140.85 1.11187C140.394 1.49587 139.866 2.81587 139.386 4.13587C139.026 5.09587 138.906 5.57587 138.594 5.57587C138.33 5.57587 138.258 5.40787 138.138 5.04787L137.922 4.15987C137.706 3.07987 137.25 1.42387 136.914 1.01587C136.698 0.751868 136.41 0.607868 136.098 0.631868C135.114 0.631868 134.394 3.19987 133.506 5.69587C133.002 6.99187 132.45 8.86387 132.45 9.19987C132.45 9.65587 132.738 10.0159 133.122 10.1119Z" fill="white"/>
<path d="M4.31999 24.8959C5.71199 23.7199 6.47999 21.6079 6.86399 19.5919C7.05599 18.5359 6.83999 17.1919 6.09599 16.7839C5.87999 16.6879 5.71199 16.5679 5.51999 16.3279C5.11199 15.8479 4.72799 15.7519 4.10399 15.9919C3.71999 16.1839 3.33599 16.4719 2.99999 16.8319C1.15199 18.8479 -0.0480055 22.4239 1.27199 24.4639C2.03999 25.6159 3.26399 25.8079 4.31999 24.8959ZM3.02399 23.4319C2.63999 23.3839 2.49599 22.9519 2.49599 22.2799C2.49599 20.6959 3.19199 19.3759 4.12799 18.2479C4.51199 17.8639 4.87199 17.7679 5.03999 18.2239C5.39999 19.4239 3.98399 23.5999 3.02399 23.4319Z" fill="white"/>
<path d="M11.4264 25.0639C12.3864 24.3199 13.4904 22.5199 14.3544 20.3839L15.5064 17.2879C15.7704 16.5679 15.6264 16.0639 15.0744 15.8239C14.5464 15.6559 14.0424 15.8959 13.7784 16.7359C12.7944 19.8799 11.0904 23.7439 10.2504 23.4079C9.86643 23.2159 9.86643 22.4719 10.0824 21.0559C10.1544 20.5759 11.2104 17.4319 11.3304 16.8559C11.4504 16.2559 10.9704 15.8479 10.3704 15.9199C10.0344 15.9679 9.77043 16.1839 9.55443 16.6159C8.57043 18.9199 7.68243 22.4719 8.40243 24.1999C8.90643 25.4959 10.3224 25.9039 11.4264 25.0639Z" fill="white"/>
<path d="M16.5688 25.0639C17.6488 25.1839 17.7688 23.2879 17.9368 22.1599C17.9848 21.7999 18.2968 21.6799 18.6568 21.8479C19.3288 22.1839 21.8008 23.9599 22.6408 24.7519C23.4568 25.4239 24.2728 25.2559 24.2968 24.3919C24.3448 23.9119 24.1288 23.5759 23.3128 22.9279C22.5928 22.3519 21.8488 21.7999 21.0808 21.2959C20.6728 21.0079 20.6488 20.7199 21.0568 20.4559C21.8488 19.9279 22.2328 19.8319 22.6168 19.1599C23.4088 17.9119 22.8328 16.5439 21.3208 16.0399C19.6888 15.3679 17.7208 15.5599 17.2408 17.2879C16.5448 19.9279 16.1848 21.3439 15.9448 23.2879C15.8728 24.1279 15.7048 24.9679 16.5688 25.0639ZM18.8008 19.0399C18.6088 18.7519 18.7288 18.3919 19.0168 17.7919C19.2568 17.3119 20.8648 17.4799 20.9608 18.1039C21.0088 18.4639 20.6488 18.7279 20.0728 18.9439C19.4008 19.2319 18.9928 19.3279 18.8008 19.0399Z" fill="white"/>
<path d="M32.2558 25.2559C32.6878 25.2799 34.8958 24.8239 35.9998 24.4639C36.4078 24.3439 36.6478 23.9359 36.5758 23.5039C36.4798 22.8079 35.8558 22.7839 35.1118 22.9279C34.2718 23.0959 33.8878 23.1439 33.7198 23.0479C33.3838 22.8799 33.5998 22.3759 34.0078 21.1999C34.3678 20.1679 34.9438 18.4639 35.5198 16.7359C35.8318 15.8239 35.6638 15.2959 35.0638 15.1519C34.4878 15.0079 34.1278 15.2959 33.8638 16.1599C33.5278 17.1919 33.1678 18.1999 32.8078 19.2079C31.9678 21.5839 31.1758 23.7439 31.2478 24.2719C31.3438 24.8959 31.6798 25.2319 32.2558 25.2559Z" fill="white"/>
<path d="M41.6325 24.8959C43.0245 23.7199 43.7925 21.6079 44.1765 19.5919C44.3685 18.5359 44.1525 17.1919 43.4085 16.7839C43.1925 16.6879 43.0245 16.5679 42.8325 16.3279C42.4245 15.8479 42.0405 15.7519 41.4165 15.9919C41.0325 16.1839 40.6485 16.4719 40.3125 16.8319C38.4645 18.8479 37.2645 22.4239 38.5845 24.4639C39.3525 25.6159 40.5765 25.8079 41.6325 24.8959ZM40.3365 23.4319C39.9525 23.3839 39.8085 22.9519 39.8085 22.2799C39.8085 20.6959 40.5045 19.3759 41.4405 18.2479C41.8245 17.8639 42.1845 17.7679 42.3525 18.2239C42.7125 19.4239 41.2965 23.5999 40.3365 23.4319Z" fill="white"/>
<path d="M47.7366 24.9919C48.4086 24.3919 51.8886 18.6799 52.3686 17.3599C52.5126 16.9279 52.3446 16.5199 51.9606 16.3039C51.6246 16.1359 51.2166 16.2319 50.9286 16.5439C50.2806 17.2639 48.7206 21.0079 48.0246 20.9599C47.5926 20.9119 47.7606 18.1759 47.9286 16.4719C47.9286 15.6799 47.6406 15.2959 47.0886 15.2479C46.7526 15.2239 46.4166 15.4639 46.2726 15.7759C46.2006 15.9919 46.1046 16.8079 46.0806 17.4319C45.9366 20.2879 45.8646 23.9359 46.0566 24.5839C46.3206 25.3999 47.1366 25.6159 47.7366 24.9919Z" fill="white"/>
<path d="M54.2241 25.3039C54.5361 25.3039 57.1761 25.0399 57.5601 24.8479C57.9201 24.6559 58.1121 24.2959 58.0401 23.9599C57.8241 22.8559 56.9121 23.4319 55.4001 23.4319C54.9681 23.4319 54.7761 23.2159 54.8001 22.8319C54.8481 22.5199 54.8961 22.1839 54.9681 21.8959C55.0881 21.4639 55.2561 21.3439 55.7361 21.3199C56.9361 21.1999 58.1121 21.4159 58.0641 20.2879C57.9681 19.4479 57.2721 19.5439 56.2401 19.4479C55.9041 19.3999 55.7601 19.1599 55.8561 18.8719C55.9521 18.4879 56.0721 18.1279 56.1681 17.7199C56.2881 17.2399 56.5521 17.1679 57.0081 17.2159C58.3281 17.4319 60.0321 17.5279 59.8641 16.4239C59.7921 15.4399 58.0401 15.4159 56.4321 15.4159C55.4961 15.3679 55.0161 15.7519 54.5841 16.8799C54.3441 17.4559 53.4561 20.5039 53.2401 21.4879C53.0721 22.2799 52.9041 23.0719 52.9041 23.8879C52.9041 24.7759 53.3361 25.2319 54.2241 25.3039Z" fill="white"/>
<path d="M66.9097 25.4719C67.2217 25.5919 67.4857 25.5199 67.7737 25.2319C67.9897 25.0399 68.4457 23.9359 68.9257 22.3519C69.0217 21.9439 69.2857 21.7279 69.6937 21.7279C71.0617 21.5839 72.2377 21.6559 72.0457 20.5519C71.9497 19.8319 71.3017 19.8559 70.4137 19.8559C69.8617 19.8319 69.7177 19.6399 69.8377 19.1119C70.1497 17.5999 70.1977 17.2159 70.9177 17.1439C72.5017 16.9759 72.9337 16.8079 73.3897 16.7599C74.1338 16.6159 74.7097 16.5199 74.6617 15.7999C74.4937 14.4079 72.1897 15.0319 69.8137 15.5359C69.0457 15.6559 68.5658 16.2079 68.4457 17.1919C68.2537 18.3199 67.1977 22.0399 66.7657 23.1199C66.5257 23.7679 66.3097 24.3439 66.3337 24.7279C66.3577 25.1119 66.5257 25.3519 66.9097 25.4719Z" fill="white"/>
<path d="M77.9137 24.8959C79.3057 23.7199 80.0737 21.6079 80.4577 19.5919C80.6497 18.5359 80.4337 17.1919 79.6897 16.7839C79.4737 16.6879 79.3057 16.5679 79.1137 16.3279C78.7057 15.8479 78.3217 15.7519 77.6977 15.9919C77.3137 16.1839 76.9297 16.4719 76.5937 16.8319C74.7457 18.8479 73.5457 22.4239 74.8657 24.4639C75.6337 25.6159 76.8577 25.8079 77.9137 24.8959ZM76.6177 23.4319C76.2337 23.3839 76.0897 22.9519 76.0897 22.2799C76.0897 20.6959 76.7858 19.3759 77.7217 18.2479C78.1058 17.8639 78.4657 17.7679 78.6337 18.2239C78.9937 19.4239 77.5777 23.5999 76.6177 23.4319Z" fill="white"/>
<path d="M82.1938 25.0639C83.2738 25.1839 83.3938 23.2879 83.5618 22.1599C83.6098 21.7999 83.9218 21.6799 84.2818 21.8479C84.9538 22.1839 87.4258 23.9599 88.2658 24.7519C89.0818 25.4239 89.8978 25.2559 89.9218 24.3919C89.9698 23.9119 89.7538 23.5759 88.9378 22.9279C88.2178 22.3519 87.4738 21.7999 86.7058 21.2959C86.2978 21.0079 86.2738 20.7199 86.6818 20.4559C87.4738 19.9279 87.8578 19.8319 88.2418 19.1599C89.0338 17.9119 88.4578 16.5439 86.9458 16.0399C85.3138 15.3679 83.3458 15.5599 82.8658 17.2879C82.1698 19.9279 81.8098 21.3439 81.5698 23.2879C81.4978 24.1279 81.3298 24.9679 82.1938 25.0639ZM84.4258 19.0399C84.2338 18.7519 84.3538 18.3919 84.6418 17.7919C84.8818 17.3119 86.4898 17.4799 86.5858 18.1039C86.6338 18.4639 86.2738 18.7279 85.6978 18.9439C85.0258 19.2319 84.6178 19.3279 84.4258 19.0399Z" fill="white"/>
<path d="M97.5448 25.1359C98.1448 25.2799 98.6488 24.8959 98.6728 24.2719C98.6968 23.7439 98.7688 23.1679 98.9128 22.4239C99.0328 21.9679 99.2728 21.7519 99.7528 21.6559C101.601 21.4159 102.825 21.0559 103.977 19.6399C104.721 18.7279 104.649 17.6959 103.761 16.8559C102.705 15.7999 101.337 15.7039 99.6328 15.7519C98.7688 15.7759 98.4088 16.0639 98.1928 16.9519L97.0168 22.8559C96.8248 23.7679 96.6568 24.9439 97.5448 25.1359ZM100.065 19.7839C99.4168 19.8799 99.5128 19.2559 99.7528 18.1999C99.8728 17.6239 100.089 17.5039 100.689 17.5279C101.913 17.5999 103.017 18.0559 102.321 18.7999C101.745 19.3999 100.977 19.7359 100.065 19.7839Z" fill="white"/>
<path d="M105.85 25.2559C106.282 25.2799 108.49 24.8239 109.594 24.4639C110.002 24.3439 110.242 23.9359 110.17 23.5039C110.074 22.8079 109.45 22.7839 108.706 22.9279C107.866 23.0959 107.482 23.1439 107.314 23.0479C106.978 22.8799 107.194 22.3759 107.602 21.1999C107.962 20.1679 108.538 18.4639 109.114 16.7359C109.426 15.8239 109.258 15.2959 108.658 15.1519C108.082 15.0079 107.722 15.2959 107.458 16.1599C107.122 17.1919 106.762 18.1999 106.402 19.2079C105.562 21.5839 104.77 23.7439 104.842 24.2719C104.938 24.8959 105.274 25.2319 105.85 25.2559Z" fill="white"/>
<path d="M117.519 25.8559C117.951 25.9279 118.335 25.6879 118.455 25.2559C118.719 24.2959 119.463 17.6479 119.343 16.6639C119.223 15.8239 118.455 15.4639 117.687 15.9199C116.823 16.4479 114.759 19.1839 113.919 20.5999L111.903 23.9599C111.423 24.7039 111.447 25.2319 111.903 25.5199C112.215 25.7359 112.623 25.7359 112.935 25.5199C113.127 25.3519 113.703 24.4639 114.159 23.7439C114.351 23.4559 114.519 23.3359 114.783 23.3359L116.319 23.4079C116.631 23.4319 116.823 23.6959 116.799 24.0079C116.799 25.0399 116.703 25.7359 117.519 25.8559ZM116.535 21.6079C116.127 21.6079 115.935 21.5839 115.839 21.3679C115.599 20.9359 116.655 19.3999 117.135 19.6159C117.351 19.6879 117.351 19.8799 117.183 21.0799C117.135 21.4399 116.871 21.6079 116.535 21.6079Z" fill="white"/>
<path d="M121.192 25.1119C121.696 25.2319 122.08 24.8959 122.272 24.2239C122.608 23.0479 123.16 21.2719 123.736 20.0959C123.88 19.8079 124.264 19.8319 124.384 20.1439C125.152 23.2639 125.2 24.0319 125.632 24.6319C125.896 24.9919 126.232 25.1599 126.568 25.1599C126.904 25.1599 127.192 24.9439 127.336 24.5839C127.624 23.8399 127.84 23.1919 128.032 22.6399C128.968 19.9759 129.232 19.1599 130.144 17.3839C130.24 17.1679 130.312 16.9759 130.312 16.8079C130.336 16.2559 129.856 15.9199 129.496 15.9199C129.256 15.9199 129.088 15.9919 128.92 16.1119C128.464 16.4959 127.936 17.8159 127.456 19.1359C127.096 20.0959 126.976 20.5759 126.664 20.5759C126.4 20.5759 126.328 20.4079 126.208 20.0479L125.992 19.1599C125.776 18.0799 125.32 16.4239 124.984 16.0159C124.768 15.7519 124.48 15.6079 124.168 15.6319C123.184 15.6319 122.464 18.1999 121.576 20.6959C121.072 21.9919 120.52 23.8639 120.52 24.1999C120.52 24.6559 120.808 25.0159 121.192 25.1119Z" fill="white"/>
<path d="M134.244 25.4719C134.748 25.7359 135.3 25.4239 135.588 24.7279C136.26 22.9519 136.956 20.3359 137.532 17.9839C137.772 17.0959 137.844 17.0239 138.78 17.0239C139.26 17.0239 140.052 16.9999 140.628 16.9519C141.084 16.9039 141.396 16.5199 141.396 16.1119C141.396 15.5359 140.94 15.2479 140.004 15.2479C135.324 15.2239 134.076 15.2719 132.396 15.6079C131.772 15.7039 131.34 16.2559 131.508 16.7359C131.628 17.1439 131.868 17.3359 132.156 17.3359C132.732 17.3359 134.1 17.0959 135.396 17.0959C135.66 17.0959 135.756 17.2879 135.756 17.5039C135.756 18.2959 134.532 22.4719 133.932 24.0559C133.644 24.7759 133.74 25.2079 134.244 25.4719Z" fill="white"/>
<path d="M144.571 25.7119C146.035 25.4239 147.115 24.0799 146.971 22.6879C146.803 21.2239 146.155 20.1439 144.715 19.0639C143.875 18.3919 143.875 18.1519 144.907 17.6479C145.555 17.3359 146.227 17.2399 146.899 17.1439C147.739 16.9519 148.051 16.6399 147.955 16.1119C147.883 15.6319 147.523 15.3919 146.875 15.3919C145.171 15.4159 143.275 16.2319 142.411 17.3119C141.931 17.9839 141.907 18.6319 142.387 19.3519C142.675 19.7839 143.923 20.7199 144.451 21.1999C145.555 22.3039 145.363 23.8639 144.043 23.9839C143.395 24.0319 142.891 23.7919 142.531 23.2879C142.219 22.8799 141.859 22.7839 141.451 22.9999C141.019 23.2159 140.827 23.7199 140.971 24.1999C141.259 25.2319 143.107 25.9999 144.571 25.7119Z" fill="white"/>
<path d="M150.415 22.2799C150.824 22.4239 151.279 22.2799 151.495 21.9199C151.999 21.1519 152.623 17.9839 153.319 15.8719C153.535 15.1999 153.031 14.8159 152.576 14.7439C152.12 14.6719 151.759 14.9359 151.591 15.5119C151.207 17.2639 150.128 20.4559 149.936 21.2719C149.816 21.7039 150.007 22.0879 150.415 22.2799ZM149.959 25.8799C150.439 25.8799 150.847 25.4959 150.847 25.0159C150.847 24.6079 150.464 24.2239 150.031 24.1999C149.551 24.1759 149.143 24.5599 149.119 25.0159C149.095 25.4959 149.479 25.8799 149.959 25.8799Z" fill="white"/>
<g clip-path="url(#clip0)">
<path d="M236.521 47.0415C236.521 45.6815 236.521 45.6815 236.521 44.3215C233.781 51.1215 231.041 56.5615 224.192 59.2815C215.973 64.7215 206.384 59.2815 199.534 52.4815C196.795 49.7615 194.055 45.6815 191.315 41.6015C188.575 37.5215 184.466 30.7215 178.986 32.0815C176.247 33.4415 174.877 36.1615 173.507 37.5215C172.137 40.2415 170.767 41.6015 169.397 44.3215C166.658 48.4015 163.918 52.4815 159.808 53.8415C155.699 55.2015 151.589 52.4815 147.479 48.4015C144.74 45.6815 142 40.2415 142 34.8015H143.37C144.74 38.8815 146.11 42.9615 150.219 47.0415C152.959 51.1215 158.438 53.8415 162.548 48.4015C165.288 45.6815 168.027 41.6015 169.397 37.5215C172.137 34.8015 174.877 30.7215 178.986 29.3615C187.205 26.6415 194.055 38.8815 196.795 44.3215C200.904 51.1215 209.123 60.6415 220.082 57.9215C225.562 56.5615 228.301 52.4815 231.041 48.4015C232.411 45.6815 233.781 42.9615 236.521 40.2415C235.151 40.2415 235.151 41.6015 233.781 41.6015C232.411 41.6015 231.041 40.2415 232.411 38.8815C235.151 37.5215 237.89 34.8015 239.26 33.4415C240.63 32.0815 243.37 33.4415 242 34.8015C242 40.2415 240.63 44.3215 240.63 48.4015C239.26 49.7615 236.521 49.7615 236.521 47.0415Z" fill="white"/>
</g>
<defs>
<clipPath id="clip0">
<rect width="100" height="34" transform="matrix(1 0 0 -1 142 62)" fill="white"/>
</clipPath>
</defs>
</svg>
