<svg width="16" height="15" viewBox="0 0 16 15" fill="none" xmlns="http://www.w3.org/2000/svg">
<path d="M14.325 1.00945C12.5188 -0.509301 9.72813 -0.281176 8 1.4782C6.27188 -0.281176 3.48125 -0.512426 1.675 1.00945C-0.674996 2.98757 -0.331246 6.21257 1.34375 7.92195L6.825 13.5063C7.1375 13.8251 7.55625 14.0032 8 14.0032C8.44688 14.0032 8.8625 13.8282 9.175 13.5095L14.6563 7.92508C16.3281 6.2157 16.6781 2.9907 14.325 1.00945ZM13.5875 6.86883L8.10625 12.4532C8.03125 12.5282 7.96875 12.5282 7.89375 12.4532L2.4125 6.86883C1.27188 5.70633 1.04063 3.50632 2.64063 2.15945C3.85625 1.13757 5.73125 1.2907 6.90625 2.48757L8 3.6032L9.09375 2.48757C10.275 1.28445 12.15 1.13757 13.3594 2.15632C14.9563 3.5032 14.7188 5.7157 13.5875 6.86883Z" fill="#323232"/>
</svg>
