<svg width="211" height="331" viewBox="0 0 211 331" fill="none" xmlns="http://www.w3.org/2000/svg">
<path d="M79.4405 139.747C79.9916 141.801 81.8025 143.776 83.4558 145.04C87.3924 148.042 93.2972 146.541 95.1081 142.038C95.1868 141.959 95.1868 141.801 95.1868 141.722C94.7144 143.776 94.242 145.83 93.8484 147.884C93.1398 151.597 91.8801 154.836 90.4629 158.311C88.7308 162.419 85.1092 167.475 85.3454 172.215C85.4241 173.795 87.3137 174.585 87.5499 172.61C87.8648 170.161 90.2267 167.633 91.4077 165.579C92.9823 162.814 94.242 159.891 95.5805 157.047C96.9976 153.967 98.1786 150.728 99.2808 147.568C99.5958 148.437 100.068 149.227 100.698 149.938C102.273 151.676 104.005 151.992 106.209 151.597C110.776 150.807 116.68 151.755 119.908 147.647C120.46 146.936 120.145 144.724 118.885 145.119C114.397 146.62 108.886 148.595 105.422 144.171C104.32 142.749 103.454 140.774 102.115 139.984C102.273 139.668 102.351 139.352 102.509 139.115C103.217 137.377 103.769 135.56 104.32 133.664C105.186 134.928 106.052 136.113 107.784 136.508C109.91 136.982 112.744 135.718 114.87 135.323C116.759 134.928 118.098 134.138 119.751 133.111C121.798 131.847 124.239 131.215 126.049 129.477C126.837 128.766 126.994 125.448 125.262 125.764C123.609 126.001 121.955 125.922 120.302 126.317C118.727 126.712 117.232 127.66 115.657 127.739C114.082 127.818 112.035 127.344 110.539 126.712C109.044 126.001 108.177 124.737 106.603 124.263C106.839 123.078 107.154 121.815 107.469 120.63C108.02 118.418 108.492 116.206 108.965 113.994C111.878 117.47 117.468 118.023 121.641 116.048C124.396 114.784 127.23 112.809 129.75 111.071C132.505 109.175 134.474 106.41 136.993 104.198C138.095 103.25 137.702 99.2212 135.733 100.09C132.899 101.354 130.537 103.092 127.545 103.882C124.317 104.751 121.089 105.541 117.783 105.936C116.051 106.094 112.586 106.015 110.067 106.805C110.303 104.83 110.539 102.855 110.697 100.88C110.776 100.011 110.854 99.1422 110.854 98.3522C111.091 98.5102 111.327 98.5892 111.563 98.7472C114.555 99.9322 120.066 98.1942 122.743 96.6933C125.892 94.9553 128.097 92.3484 130.695 89.8995C132.584 88.1615 134.316 86.9766 134.395 84.2117C134.395 83.0267 133.45 81.4467 132.191 82.3947C131.01 83.3427 130.065 84.5276 128.726 85.3176C126.758 86.4236 124.475 86.5816 122.27 86.8186C118.649 87.2136 114.87 87.2926 111.327 88.1615C111.405 85.5546 111.405 82.8687 111.405 80.2618C113.452 82.8687 116.287 84.4486 119.83 82.9477C124.632 80.8938 128.333 75.9959 130.695 71.572C131.324 70.3081 130.852 66.2792 128.726 67.9381C126.364 69.7551 125.656 72.994 122.192 73.231C119.594 73.389 117.232 72.125 114.555 72.283C113.846 72.362 112.429 72.52 111.248 72.915C111.169 70.7031 111.091 68.4911 111.012 66.2792C115.499 67.3852 118.727 63.9883 121.877 60.9864C124.869 58.1424 127.467 55.6145 129.199 51.7436C129.592 50.8747 128.648 47.7148 127.388 49.1367C125.262 51.6646 123.609 54.5085 120.617 56.2465C118.806 57.3525 117.468 56.7995 115.499 56.5625C113.767 56.3255 112.193 56.6415 110.539 57.1945C110.461 56.0095 110.461 54.8245 110.382 53.7186C110.461 53.7186 110.461 53.7976 110.539 53.7976C111.72 54.3506 112.271 54.5876 113.61 54.1136C115.893 53.3236 117.546 51.5856 119.042 49.8477C120.932 47.7148 122.507 45.0288 123.53 42.3429C124.317 40.368 125.577 38.077 125.656 35.8651C125.735 34.8381 124.632 33.5742 123.845 34.7591C123.215 35.7861 121.011 36.0231 119.987 36.4971C117.783 37.6031 116.444 39.183 115.027 41.079C113.295 43.3699 111.248 45.3448 110.146 47.8728C109.91 44.6339 109.673 41.395 109.201 38.235C109.201 37.9981 109.122 37.6821 109.122 37.4451C112.823 37.3661 116.366 31.7572 117.547 29.2293C118.491 27.0964 118.649 25.0424 119.121 22.8305C119.515 20.8556 119.515 19.1176 118.885 17.2217C118.491 16.0367 117.153 16.1947 116.838 17.3007C116.602 18.1696 116.68 19.2756 116.366 19.9866C115.893 21.0926 115.421 20.9346 114.319 21.4086C113.059 21.9615 111.72 22.6725 110.539 23.4625C110.539 22.9885 110.539 22.5935 110.461 22.2775C110.146 20.6976 109.437 19.2756 109.122 17.7747C108.729 15.7207 108.729 13.3508 108.414 11.2179C107.941 7.82098 107.626 3.63411 105.343 0.869194C104.083 -0.631757 102.351 0.39521 102.194 2.21215C101.879 6.87301 102.036 11.4549 102.43 16.1157C101.013 15.1677 99.9107 14.2198 98.5722 13.0348C97.5487 12.0868 96.3678 11.5338 95.1868 10.7439C94.6357 10.3489 94.9506 10.5069 94.4782 9.47991C94.242 8.92693 93.9271 8.61094 93.6122 8.05795C92.9823 7.031 92.1163 7.97896 91.9588 8.76893C91.8801 9.16392 91.8801 9.47991 91.8801 9.7959C91.8801 9.8749 91.8801 9.8749 91.8013 9.9539C91.4864 11.1389 91.6439 12.3238 91.7226 13.5088C91.9588 16.0367 92.9823 18.8016 94.3995 20.8556C96.0528 23.3045 97.8637 25.8324 100.777 26.7804C101.879 27.1754 102.981 27.1754 104.083 26.8594C104.162 27.0964 104.162 27.4124 104.241 27.6494C104.635 30.6513 104.713 33.7322 104.871 36.7341C104.32 35.8651 103.532 34.9961 102.824 34.2852C101.958 33.4952 100.934 33.1002 100.068 32.3892C99.4383 31.9152 99.0446 31.2833 98.4935 30.8093C97.7062 30.0983 96.6827 29.6243 95.5017 29.5453C95.0293 29.5453 93.2972 29.8613 93.7696 29.9403C92.2737 29.7033 91.4077 29.1503 89.8331 29.3873C89.2819 29.4663 89.1245 30.0983 89.1245 30.5723C89.0457 32.1522 90.148 32.7052 90.9353 33.9692C91.5652 34.9171 91.4864 35.4701 91.7226 36.5761C92.0375 37.9981 92.6674 39.341 93.4547 40.605C95.5805 44.0809 99.5958 48.0307 104.005 45.8978C104.477 45.6608 104.949 45.2658 105.264 44.7918C105.264 47.4778 105.264 50.0847 105.107 52.7706C104.241 52.6916 103.375 52.6916 102.43 52.7706C101.092 52.8496 99.4383 53.6396 97.9424 53.4026C96.4465 53.1656 94.1633 52.2966 92.8249 51.4276C91.9588 50.8747 91.329 50.0057 90.3054 50.6377C89.8331 50.9537 89.6756 51.8226 90.0693 52.2966C90.5416 52.8496 90.6204 53.7976 91.014 54.5086C91.4864 55.2985 92.195 56.2465 92.9036 56.8785C93.8484 57.6685 95.0293 58.1424 95.9741 59.0114C97.0763 60.0384 98.0999 61.6183 99.3596 62.3293C99.6745 62.4873 99.7532 62.5663 99.7532 62.4873C100.068 62.7243 100.383 63.0403 100.855 63.2773C101.879 63.7513 103.06 63.9883 104.241 63.9883C104.398 63.9883 104.556 63.9883 104.635 63.9093C104.635 64.9362 104.556 65.8842 104.556 66.9112C101.564 65.9632 98.0211 67.1482 95.5017 64.8572C93.6122 63.0403 91.4864 61.1443 88.6521 61.3813C86.2114 61.5393 86.3689 65.7262 87.786 66.9902C88.967 68.0172 89.7543 70.1501 90.5416 71.414C91.5652 73.152 92.9036 74.6529 94.7144 75.6009C97.9424 77.2599 101.485 76.7859 104.398 74.9689C104.32 79.3138 104.241 83.6587 104.083 88.0035C101.485 87.0556 98.9659 85.7916 96.8402 84.1327C95.5805 83.1847 94.6357 81.9997 93.376 81.0518C92.2737 80.2618 91.014 79.5508 89.9905 78.6818C89.8331 78.6028 89.7543 78.5238 89.5181 78.5238C89.0457 78.6028 88.7308 78.9188 88.5734 79.3928C87.786 81.5257 88.967 84.0537 89.7543 86.1076C90.8566 89.1095 91.4077 92.0324 94.0058 94.2444C96.5252 96.3773 100.462 97.7202 103.69 96.9303C103.611 98.3522 103.454 99.6952 103.375 101.117C103.217 102.618 103.06 104.198 102.824 105.699C100.226 103.882 96.6827 103.566 93.9271 101.907C92.7461 101.196 92.0375 99.9322 90.8566 99.2212C89.7543 98.5102 88.3372 97.7992 87.0775 97.3253C85.3454 96.6933 84.9517 99.3792 85.1092 100.485C85.5028 102.618 86.6838 104.119 87.2349 106.015C87.9435 108.227 89.0457 110.36 91.014 111.703C94.242 113.915 98.4935 113.994 101.8 112.019C101.249 115.179 100.698 118.26 100.068 121.341C97.5487 121.104 95.1081 122.21 92.3525 121.499C90.148 120.946 88.4159 119.919 86.6838 118.418C85.8178 117.628 85.1092 116.048 83.7708 116.364C82.9047 116.522 82.6685 117.786 83.0622 118.497C84.0857 120.472 84.1644 122.368 85.6603 124.263C87.3137 126.396 89.1245 127.897 91.1715 129.556C93.376 131.294 95.5805 132.005 97.7849 131.768C97.3913 133.506 96.9976 135.244 96.5252 136.982C96.289 136.982 96.0528 136.903 95.8166 136.982C95.5805 136.982 95.5805 136.982 95.7379 136.982C95.5017 136.903 95.3443 136.903 95.1081 136.903C94.8719 136.903 94.6357 136.982 94.3995 137.14C93.9271 136.587 93.376 136.271 92.5887 136.192C90.9353 135.955 89.1245 136.192 87.4711 136.35C86.2902 136.508 83.692 137.614 82.826 137.14C81.7237 136.587 81.8025 130.662 78.9681 132.4C78.1807 132.874 78.0233 134.375 78.8107 135.007C79.1256 134.928 79.3618 139.352 79.4405 139.747Z" fill="#9CA72C"/>
<path d="M186.436 108.464C185.412 108.464 185.019 109.175 184.153 109.57C182.972 110.202 181.712 110.518 180.374 110.676C179.114 110.834 177.854 110.676 176.594 110.597C176.752 110.439 176.831 110.281 176.988 110.123C178.405 107.437 180.452 105.225 181.161 102.223C181.791 99.5375 181.791 95.9826 181.082 93.2966C180.846 92.4277 179.901 91.4797 179.271 92.5857C177.775 94.9556 178.012 97.8785 176.516 100.327C174.705 103.171 172.894 105.146 173.524 108.78C172.973 109.491 172.422 110.281 171.871 110.992C171.634 109.807 171.871 108.543 171.398 107.279C171.004 106.094 170.138 105.146 170.217 103.882C170.296 102.697 171.162 101.275 171.398 100.011C171.634 98.6685 171.634 97.3255 171.319 95.9826C171.162 95.2716 170.296 94.4816 169.824 95.4296C169.036 96.7725 168.643 98.2735 167.934 99.6954C167.068 101.275 165.966 102.618 165.651 104.514C165.257 106.331 165.493 107.911 166.202 109.649C166.517 110.439 166.91 111.15 167.383 111.782C167.934 112.493 168.8 112.73 169.351 113.362C169.509 113.52 169.587 113.599 169.745 113.678C168.091 115.732 166.438 117.786 164.785 119.84C164.706 119.05 164.47 118.339 163.997 117.47C163.21 116.048 162.265 114.468 162.187 113.599C162.029 110.36 162.974 106.331 160.769 103.487C160.297 102.934 159.667 102.934 159.274 103.487C158.88 104.04 158.959 104.672 158.722 105.225C158.486 105.778 157.935 106.252 157.62 106.805C156.597 108.859 156.124 111.624 156.439 113.836C156.675 115.969 157.541 117.391 159.116 118.655C160.376 119.761 161.399 121.341 162.738 122.289C162.187 123 161.635 123.632 161.084 124.343C160.14 125.528 159.195 126.713 158.25 127.898C157.935 127.266 157.463 126.792 156.912 126.16C155.573 124.58 155.573 124.422 154.707 122.921C154.392 122.447 153.92 122.052 153.762 121.578C153.447 120.867 153.762 119.603 153.605 118.813C153.369 117.233 152.896 115.811 152.345 114.31C152.03 113.52 150.928 112.967 150.456 113.994C149.511 115.89 149.59 117.786 149.432 119.84C149.275 122.131 149.117 124.422 150.377 126.476C151.637 128.451 153.29 130.663 155.416 131.294C153.605 133.506 151.794 135.718 150.141 138.088C149.983 137.377 149.747 136.666 149.353 136.034C148.881 135.244 148.251 134.77 147.543 134.217C147.306 134.059 147.07 133.743 146.834 133.585C146.834 133.743 146.834 133.901 146.598 134.138C146.677 133.98 146.755 133.822 146.677 133.506C146.598 133.506 146.598 133.427 146.519 133.427C145.889 133.111 146.362 133.111 146.598 133.348C146.283 132.005 145.023 129.715 144.866 129.162C144.472 127.503 142.976 128.53 143.212 129.873C143.291 130.268 143.449 130.742 143.37 131.137C143.212 131.61 142.661 132.084 142.425 132.637C141.874 133.901 141.795 135.481 142.031 136.745C142.504 138.957 144.787 142.117 146.834 143.065C146.283 144.092 145.653 145.119 145.181 146.225C144.866 146.857 144.551 147.489 144.236 148.2C143.685 147.963 143.134 147.805 142.504 147.647C140.929 147.173 140.772 146.62 139.984 145.277C139.433 144.25 138.174 139.273 135.654 141.722C134.946 142.433 134.946 143.855 135.497 144.645C135.339 144.408 135.339 145.83 135.339 146.067C135.339 147.015 135.497 148.042 135.812 148.99C136.284 150.333 136.914 151.913 137.859 153.019C138.646 153.967 139.827 154.836 141.008 155.231C140.142 157.364 139.276 159.576 138.567 161.788C138.41 161.551 138.252 161.314 138.016 161.156C136.835 160.287 135.575 159.497 134.473 158.549C132.977 157.285 132.977 154.994 132.82 153.098C132.741 152.071 131.639 151.597 131.403 152.861C130.93 155.547 130.222 158.549 131.088 161.235C131.56 162.578 132.269 163.763 133.213 164.868C134.001 165.737 134.867 166.922 135.733 167.633C136.048 167.87 136.363 168.028 136.599 168.107C136.363 169.134 136.048 170.082 135.812 171.109C135.418 172.768 135.103 174.427 134.867 176.086C133.213 176.086 132.426 175.849 131.481 174.269C130.615 172.847 129.671 171.741 128.647 170.477C126.836 168.265 125.183 166.922 122.742 165.579C122.191 165.263 121.955 166.369 122.112 166.685C122.821 169.213 123.608 171.425 124.868 173.795C126.128 176.244 127.309 179.088 128.962 181.3C130.222 182.959 132.269 183.749 134.08 183.512C133.686 189.121 133.922 194.73 134.631 200.259C134.867 202.076 136.599 201.286 136.599 199.785C136.678 195.125 136.756 190.464 137.071 185.803C138.882 187.067 140.929 187.383 143.763 186.988C148.015 186.435 152.109 184.302 155.101 181.142C155.652 180.589 155.573 178.614 154.471 179.009C150.771 180.273 146.204 182.011 142.504 180.431C140.85 179.799 139.512 178.298 137.937 177.745C138.252 175.375 138.725 173.005 139.355 170.556C141.008 172.373 143.449 173.795 145.496 174.743C149.275 176.481 154.707 176.639 158.329 174.506C159.903 173.558 160.061 170.635 158.644 169.45C155.18 166.527 150.141 166.764 146.047 165.263C144.393 164.631 142.661 164.158 141.165 164.473C142.189 161.393 143.37 158.312 144.629 155.31C144.708 155.31 144.866 155.231 144.944 155.231C145.023 155.626 145.181 156.021 145.417 156.258C146.362 157.443 147.621 157.838 148.802 158.707C150.377 159.892 151.164 161.63 152.739 162.815C155.967 165.184 159.982 165.5 163.682 165.026C165.966 164.71 166.044 161.156 165.021 159.655C162.502 156.179 157.148 155.626 153.999 152.782C152.266 151.202 149.353 150.412 147.149 151.439C147.07 151.123 146.991 150.728 146.834 150.412C147.7 148.674 148.645 146.936 149.59 145.277C149.668 145.119 149.747 144.961 149.904 144.803C150.613 145.119 151.322 146.146 152.109 146.778C153.211 147.726 153.92 149.069 155.101 149.938C156.36 150.886 157.935 151.36 159.431 151.439C161.478 151.597 162.502 150.728 164.155 149.78C166.123 148.595 166.438 144.25 163.997 143.302C162.423 142.749 160.927 141.801 159.352 141.327C157.935 140.853 156.518 140.695 155.18 140.142C154.471 139.905 153.841 139.747 153.29 139.668C154.865 137.456 156.597 135.244 158.329 133.111C159.116 134.375 160.061 135.244 160.691 136.745C161.399 138.325 162.108 139.273 163.761 139.589C166.91 140.3 170.926 140.458 173.366 138.009C174.075 137.298 174.232 135.481 173.288 134.849C171.949 133.98 170.69 134.059 169.115 133.743C168.091 133.506 167.147 133.269 166.202 132.953C166.202 132.953 165.021 132.479 164.549 132.321C164.391 132.005 163.84 131.137 163.682 130.979C163.21 130.426 162.738 130.11 162.108 129.794C161.872 129.715 161.557 129.636 161.321 129.557C162.659 127.977 163.997 126.397 165.257 124.817C168.17 126.555 170.06 128.293 173.76 127.74C177.067 127.266 179.35 125.054 182.735 124.738C183.995 124.58 183.995 122.21 182.893 121.815C181.318 121.183 179.744 121.42 178.09 121.657C175.728 121.894 174.154 121.104 171.871 120.63C170.847 120.393 169.902 120.235 168.957 120.156C170.06 118.655 171.162 117.154 172.185 115.653C174.705 117.786 178.799 118.102 181.712 116.68C183.916 115.574 186.908 112.809 187.144 110.202C187.459 109.649 187.302 108.543 186.436 108.464Z" fill="#9CA72C"/>
<path d="M146.755 133.664C146.755 133.585 146.676 133.427 146.598 133.348C146.598 133.427 146.598 133.506 146.598 133.506C146.676 133.585 146.755 133.585 146.755 133.664Z" fill="#9CA72C"/>
<path d="M91.6437 234.149C98.2571 239.284 106.209 242.443 114.003 245.129C117.389 246.314 117.625 239.837 115.735 238.336C112.822 235.966 110.539 233.517 107.232 231.621C104.004 229.804 100.462 228.461 97.3911 226.249C95.5802 224.906 93.6907 223.563 91.8799 222.22C91.9586 222.22 91.9586 222.141 92.0373 222.141C94.2418 220.561 96.9974 220.403 99.2806 218.981C102.43 217.006 104.871 214.794 105.5 210.923C106.13 207.29 105.737 203.656 104.162 200.338C103.138 198.284 102.824 195.993 100.777 194.729C100.54 194.571 100.225 194.808 100.068 195.045C99.2019 196.309 99.3593 198.047 99.3593 199.548C99.2019 202.313 99.6743 204.999 99.3593 207.843C99.0444 211.397 98.0996 214.241 94.7929 215.9C92.8246 216.927 91.7224 217.48 90.6202 219.534C90.384 219.929 90.384 220.64 90.4627 221.272C87.9433 219.376 85.5026 217.401 83.1407 215.347C84.4004 214.873 85.6601 214.162 86.6836 213.056C90.6989 209.027 90.384 202.866 92.431 197.889C92.6672 197.336 92.1161 196.151 91.5649 196.862C90.3052 198.6 89.5967 200.496 88.022 202.155C86.6836 203.498 85.3452 204.446 83.6918 205.236C81.0937 206.5 78.1809 206.974 75.6615 208.238C74.2444 206.816 72.8272 205.315 71.3313 203.893C72.2761 203.972 73.2208 203.814 74.2444 203.34C79.9127 200.496 81.881 192.991 81.4086 187.145C81.2511 184.854 78.9679 182.8 77.7085 185.723C76.2913 188.883 73.2994 194.097 69.599 194.334C67.6308 194.492 65.9774 194.571 64.0879 195.045C63.5367 195.203 62.907 195.282 62.2772 195.282C60.3089 193.465 58.4193 191.569 56.6872 189.594C60.4663 189.752 64.2455 188.251 66.3712 184.775C67.9458 182.247 68.7331 178.85 68.6544 175.927C68.6544 175.454 68.3395 171.267 67.0011 171.899C66.135 172.373 65.6626 173.795 65.1114 174.585C64.0092 176.401 63.3794 178.534 62.3558 180.351C60.3876 183.985 57.317 184.854 53.6954 186.197C52.7506 185.091 51.8846 183.985 51.0186 182.879C50.31 182.01 49.6802 181.062 49.0503 180.035C51.2548 179.956 53.1443 178.771 54.9552 176.796C57.7895 173.716 60.3875 170.872 62.5132 167.159C62.8282 166.606 62.5133 164.552 61.5685 165.421C59.1279 167.712 57.0808 171.583 53.3017 171.188C50.3099 170.872 47.7118 170.161 44.8775 171.583C43.7752 168.818 42.988 165.895 42.3582 163.051C43.6179 163.683 45.1925 163.999 46.1373 164.236C48.4992 164.868 50.8611 165.5 53.3805 164.71C56.2149 163.762 58.9705 161.313 61.0962 159.338C61.7261 158.785 61.7259 156.494 60.5449 156.652C58.8129 156.81 57.317 157.205 55.6637 157.679C53.5379 158.311 51.4122 157.837 49.2077 158.074C47.3182 158.311 43.2242 159.417 41.5708 158.548C41.4921 158.548 41.4921 158.548 41.4134 158.548C40.6261 154.44 39.8386 150.253 39.2875 146.066C40.2323 147.014 41.0985 147.883 41.9645 148.91C43.3817 150.569 44.9562 151.833 47.2394 152.149C48.9715 152.386 50.9397 151.991 52.6718 151.833C54.4826 151.596 55.9786 150.727 57.0808 149.305C57.632 148.594 57.2384 145.829 55.9787 146.54C50.3888 149.779 48.8928 144.723 45.2711 141.406C43.3816 139.668 40.7834 138.957 38.7364 139.905C38.7364 139.589 38.6578 139.273 38.6578 138.957C38.4216 135.876 38.4216 132.795 38.4216 129.714C38.5791 129.872 38.8152 129.951 38.9726 130.109C40.3898 131.136 41.8858 132.795 42.988 134.138C45.1925 136.745 46.9246 138.325 50.4675 138.799C53.2231 139.115 54.8764 137.851 57.0808 136.429C58.5767 135.402 59.5215 134.533 60.6237 133.111C61.4898 132.084 62.1196 130.425 62.9857 129.556C63.4581 129.082 63.3794 127.344 62.4347 127.739C60.7813 128.45 59.5214 129.477 58.183 130.662C55.5061 132.874 53.9317 130.899 51.0186 130.109C49.5227 129.714 48.3416 129.319 47.1606 128.292C46.2158 127.502 45.6648 126.633 44.6413 125.922C42.5943 124.579 40.6259 124.184 38.5002 123.473C38.5002 120.629 38.5789 117.864 38.5002 115.02C38.5002 114.625 38.5002 114.23 38.5002 113.835C42.358 116.047 45.2711 119.286 49.7588 120.392C54.089 121.419 58.2619 119.997 60.7026 116.126C61.5686 114.704 61.4899 111.86 59.6791 111.149C57.7895 110.28 56.6085 111.465 54.9552 112.176C52.5932 113.203 51.0185 112.808 48.5779 112.255C46.2159 111.702 43.7753 110.991 41.5708 109.964C40.3899 109.411 39.5238 108.859 38.579 108.701C38.6577 105.936 38.8152 103.171 39.0514 100.327C39.9962 100.801 41.0196 101.117 42.1219 101.67C44.4051 102.855 46.2946 104.119 48.9715 104.751C53.5379 105.699 59.3641 103.487 62.041 99.6948C62.6708 98.8258 62.3558 95.4289 60.6237 96.2979C58.498 97.3249 56.3723 98.3518 54.0104 98.9838C50.5462 100.011 48.7354 97.4039 46.5309 95.1129C44.9563 93.533 42.3581 91.874 39.9174 91.874C39.9174 91.637 39.9962 91.4 39.9962 91.163C40.4686 88.0821 40.7047 84.9222 40.9409 81.7623C42.2006 82.9473 43.2241 84.4482 45.0349 85.0802C47.5543 85.9492 50.6249 87.1342 53.3017 87.6082C58.9704 88.5561 64.1667 85.3962 66.7649 80.4984C67.9458 78.2864 67.7883 70.3077 63.3793 72.2036C61.4898 72.9936 59.9152 74.3366 58.0256 75.1265C55.8211 76.0745 53.3804 76.4695 51.0972 77.3385C48.1841 78.4444 46.6095 78.2864 44.0114 77.0225C43.1453 76.5485 42.4367 76.3905 41.6494 76.4695C42.1218 73.7046 42.8304 71.0976 43.6177 68.4117C45.8222 69.3597 48.263 70.4657 50.4675 70.7817C53.4593 71.1766 56.4509 69.1227 58.5767 67.2268C61.9621 64.2249 66.45 57.0361 64.4029 52.3752C64.2455 51.9802 63.7729 51.5852 63.3005 51.9802C60.3875 54.6661 58.1831 57.6681 54.7189 59.801C52.9868 60.907 50.8611 61.8549 48.9715 62.5659C47.7118 63.0399 46.452 63.1189 45.1923 63.1979C45.9009 60.433 46.5308 57.6681 47.3969 54.9821C47.948 55.6141 48.7353 55.9301 49.7588 55.4561C53.9316 53.4812 56.4509 48.3463 57.002 43.9225C57.2382 41.7105 56.9233 39.4196 57.002 37.2077C57.1595 34.9167 57.1595 32.5468 56.6084 30.3349C56.3722 29.5449 55.3487 28.9129 55.0337 30.0979C54.1677 33.5738 53.1443 36.1807 51.4123 39.2616C50.7037 40.6046 49.9951 41.9475 49.2865 43.3695C49.2078 43.2905 49.2076 43.2115 49.1289 43.2115C49.3651 41.5525 49.5226 39.8146 49.5226 38.1556C49.5226 36.4967 49.444 34.8377 49.444 33.2578C49.444 31.8358 48.8929 30.4139 48.8929 28.9919C48.8929 27.649 47.6332 25.279 46.1373 26.701C44.0902 28.5179 43.9328 33.1788 43.7753 35.7067C43.6179 39.9726 43.854 44.3965 45.8223 48.1883C45.901 48.3463 45.9798 48.5043 46.1373 48.5833C45.3499 50.9533 44.0115 53.3232 43.3817 55.5351C42.988 56.9571 42.5943 58.3 42.2007 59.722C40.7835 57.0361 38.8938 54.6661 37.7128 51.9012C36.217 48.5043 36.3745 44.3965 34.7999 40.9996C34.4062 40.2096 33.619 40.2096 33.3041 40.9996C32.8317 42.1845 32.9104 43.4485 32.3593 44.6334C31.8869 45.7394 30.9421 46.7664 30.5485 48.0303C29.6037 51.1113 30.076 54.8241 31.257 57.826C33.0678 62.2499 35.9022 65.0938 40.6261 65.2518C40.4686 65.8838 40.311 66.5158 40.0748 67.1478C39.2875 69.8337 38.7364 72.5196 38.3428 75.2055C37.5555 74.0996 36.532 73.6256 35.0361 73.3886C32.7529 72.9936 31.4144 72.5986 29.9185 70.8607C28.5801 69.4387 27.1629 67.9377 25.982 66.3578C25.5096 65.7258 25.1159 65.0148 24.5648 64.4618C24.0137 63.9089 23.1477 63.5139 22.6753 62.8819C22.2029 62.0919 21.1793 62.4079 21.0219 63.2769C19.8409 68.1747 24.0923 71.5716 26.2968 75.3635C28.5013 79.2344 32.438 83.6583 37.4768 82.3153C37.2406 84.6852 37.0043 87.0552 36.6107 89.3461C36.4532 90.4521 36.2957 91.637 36.1382 92.743C35.9808 92.743 35.902 92.743 35.7446 92.822C35.4296 92.901 32.7528 91.479 32.2017 91.321C29.9972 90.6101 27.714 90.6101 25.7458 89.1881C23.6987 87.7662 23.0688 86.2652 21.9666 84.1323C21.6517 83.5793 19.2111 79.3134 19.3686 79.1554C19.7623 78.6814 19.6834 77.9704 19.211 77.6545C19.1323 77.5755 19.0537 77.5755 18.9749 77.4965C18.66 77.3385 18.345 77.7334 18.2663 77.9704C17.3215 80.4984 17.8726 82.7893 18.2663 85.3172C18.8174 88.8721 18.9748 92.032 21.5729 94.8759C24.2498 97.8778 26.6906 99.7738 30.7846 98.5888C32.0443 98.1938 33.9338 98.5888 35.4297 98.3518C34.9573 101.749 34.6424 105.146 34.4062 108.622C34.17 108.069 33.7764 107.595 33.3041 107.279C30.9421 106.015 28.1865 105.541 25.8246 104.356C23.5414 103.25 21.9666 101.117 19.6046 100.248C18.8961 100.011 17.8726 100.169 17.3215 100.722C16.4555 101.67 14.8808 98.5098 14.4871 97.9568C14.0934 97.2459 13.3849 97.9568 13.3061 98.4308C12.8337 100.801 14.0148 101.907 15.117 103.882C15.8256 105.146 16.1405 106.647 16.849 107.832C17.4789 108.859 18.66 109.806 19.5261 110.675C23.3839 114.625 28.5014 115.178 33.4614 112.571C33.8551 112.413 34.0914 112.097 34.3276 111.702C34.3276 112.097 34.3275 112.492 34.2487 112.966C34.17 115.573 34.0913 118.18 34.0126 120.866C30.2334 120.945 26.3757 122.525 22.9115 120.708C20.3134 119.286 17.4003 116.205 14.2511 118.022C13.4638 118.496 13.2274 120.155 14.0934 120.708C17.9513 123.315 19.6834 127.976 24.4073 129.477C26.2969 130.109 28.5014 130.109 30.391 129.635C31.6507 129.319 32.7528 128.529 33.7763 127.818C33.6975 131.215 33.6975 134.691 33.7763 138.088C30.2334 137.93 26.6117 138.167 23.1475 137.614C21.6517 137.377 20.6283 136.666 19.3686 136.034C19.1324 135.876 16.9279 135.086 16.6917 134.849C16.6129 134.77 16.6129 134.691 16.5342 134.612C16.3767 134.375 16.1405 134.217 15.9043 134.375C15.8256 134.375 15.8256 134.454 15.7469 134.454C15.3532 134.691 15.1958 135.244 15.1958 135.639C15.3533 139.273 18.5811 142.275 21.5729 143.854C25.5095 145.908 30.5484 147.409 34.4062 145.355C34.8786 149.463 35.6659 153.571 36.3745 157.6C35.4297 157.284 34.6423 156.652 33.3826 156.099C31.4931 155.309 28.8163 155.072 26.7693 154.756C24.9585 154.519 23.6987 154.993 21.9666 155.072C19.5259 155.23 17.9514 153.729 16.3768 151.912C15.432 150.806 14.6446 152.386 14.8808 153.334C15.7468 157.837 20.2346 161.945 24.4073 163.288C28.5014 164.552 33.6977 165.026 37.2406 162.419C37.9492 166.29 38.9727 170.24 40.3899 174.111C38.7365 174.427 37.3193 174.98 35.5085 175.69C32.0443 176.954 28.5014 175.375 25.0373 174.664C23.3052 174.348 21.2581 174.348 19.6834 173.558C18.345 172.926 17.2429 171.583 16.2193 170.477C14.7235 168.897 13.1488 167.001 10.8656 166.685C9.84211 166.527 9.60576 168.423 9.76322 168.976C10.4718 171.978 12.5976 174.98 14.1723 177.586C16.2193 180.983 18.2662 182.642 22.3602 183.274C25.4308 183.669 30.2334 182.8 33.0678 181.536C34.4849 180.904 35.5871 179.482 36.9255 178.692C38.3427 177.823 39.9961 177.665 41.6494 177.428C42.4367 179.324 43.3029 181.141 44.2476 182.879C45.4286 185.091 46.767 187.303 48.1842 189.515C45.8223 189.752 43.5391 190.226 41.1772 190.779C37.0832 191.885 33.304 193.623 29.1312 191.569C26.9267 190.463 17.4002 186.75 18.03 192.517C18.3449 195.124 20.392 195.756 22.439 196.783C25.4308 198.126 27.8715 201.128 31.257 200.97C34.9573 200.812 37.7128 197.968 40.8621 196.388C43.9326 194.808 47.397 194.334 50.6249 193.07C52.357 195.519 54.2466 197.968 56.1361 200.101C56.6085 200.654 57.1596 201.207 57.632 201.76C55.27 202.55 53.0655 203.498 51.0972 204.92C48.1841 206.974 46.6096 207.053 43.0667 206.658C42.1219 206.579 41.2558 206.421 40.3111 206.658C38.7364 206.974 37.6343 208.159 36.0596 208.159C34.6425 208.159 34.6425 210.686 35.2723 211.476C36.847 213.609 39.445 214.241 41.8857 215.11C44.9562 216.216 47.6331 217.559 50.7823 215.821C53.5379 214.32 54.6402 211.002 57.1597 209.185C58.7343 208.08 60.7026 207.369 62.4347 206.342C62.9858 206.895 63.5369 207.369 64.0093 207.922C66.45 210.449 68.5756 213.293 70.8588 215.9C68.1032 218.507 65.8988 221.43 61.8047 222.299C58.6555 223.01 55.8211 223.484 52.6718 223.879C50.6248 224.116 48.0268 224.827 46.5309 226.328C45.7436 227.118 45.7434 228.619 46.3733 229.567C49.6013 234.386 59.1278 235.571 63.6942 232.253C66.686 230.041 66.6073 227.118 68.4969 224.274C69.2842 223.01 70.4653 222.062 71.3313 220.877C71.9611 220.008 72.5123 219.139 73.0634 218.191C76.8425 222.141 80.9362 225.617 85.1877 228.935C84.794 229.725 84.3217 230.515 83.7705 231.226C82.6683 232.569 80.8575 233.359 79.2828 233.991C75.8189 235.334 72.1186 235.65 68.9694 237.783C68.1033 238.415 68.1032 240.706 69.048 241.258C72.5909 243.47 78.2595 242.838 81.8022 240.627C85.2664 238.494 86.5261 234.544 87.9433 230.989C88.8881 232.095 90.3052 233.122 91.6437 234.149Z" fill="#9CA72C"/>
<path d="M199.191 13.9039C201.002 13.9829 202.891 13.5879 204.387 12.877C205.726 12.245 207.064 11.455 208.166 10.507C209.426 9.48005 209.82 8.45308 210.45 6.95215C210.764 6.24117 210.607 4.50322 209.662 4.26623C207.458 3.71324 205.332 6.24117 203.6 7.18915C201.868 8.13709 199.663 8.37409 197.853 9.24306C199.742 7.50513 201.71 5.84618 202.891 3.55525C203.285 2.84427 203.206 1.02733 201.947 1.26432C201.002 1.50132 200.136 1.26432 199.191 1.58031C198.325 1.8963 197.38 2.29129 196.514 2.60728C194.861 3.23926 193.444 4.18723 192.42 5.76718C190.609 8.53208 189.507 11.85 189.901 15.1679C187.617 17.0638 185.413 19.1968 183.366 21.2507C184.153 19.4338 185.019 17.6958 185.807 16.0369C187.066 13.3509 189.35 11.455 189.901 8.45308C189.979 7.9791 189.743 6.63616 189.035 6.79416C180.138 8.29509 179.666 17.5378 179.114 24.8056C179.114 25.1216 179.114 25.4376 179.193 25.6746C177.54 27.3335 175.965 29.0715 174.391 30.8094C174.627 28.9925 174.627 27.1755 175.493 25.2796C176.516 23.1466 177.619 21.0137 178.406 18.8018C178.8 17.7748 178.091 14.5359 176.438 15.9579C171.792 20.0657 167.541 27.0175 170.69 33.3373C170.848 33.6533 171.084 33.9693 171.32 34.2063C169.824 35.9443 168.328 37.6822 166.911 39.4991C166.045 38.5512 165.022 38.1562 163.919 37.4452C163.289 37.0502 162.345 35.8653 161.794 35.7863C161.794 35.7863 161.794 35.7863 161.794 35.7073C161.872 35.3913 162.03 35.1543 162.108 34.8383C163.132 31.5204 162.817 28.1235 161.715 24.8056C161.4 23.7786 160.219 23.8576 159.904 24.8846C159.589 25.9906 159.51 27.0175 159.274 28.1235C158.959 29.6244 158.172 30.4934 157.385 31.7574C156.204 33.8113 155.889 36.1022 156.44 38.3932C157.385 42.0271 159.983 43.765 163.132 44.239C162.423 45.187 161.715 46.056 161.006 47.0039C160.061 45.503 158.723 44.318 156.912 44.16C155.18 44.002 153.763 43.686 152.425 42.5011C151.952 42.0271 149.905 40.0521 149.905 40.0521C149.669 39.0252 148.724 38.3142 147.937 39.3412C145.732 42.3431 148.016 47.1619 150.22 49.3739C151.716 50.7958 153.527 51.6648 155.495 52.2178C156.046 52.3758 156.361 52.5338 156.676 52.7708C155.259 54.7457 153.92 56.7206 152.582 58.7746C151.795 57.6686 150.614 56.8786 149.275 56.4046C147.701 55.7727 146.205 55.6937 145.339 53.9557C144.551 52.4548 144 50.7958 143.134 49.2949C142.741 48.5839 141.796 48.6629 141.402 49.3739C140.457 51.1118 140.379 52.6128 140.694 54.5087C141.008 56.6416 141.008 58.7746 142.189 60.6705C143.213 62.3295 144.945 63.9094 146.835 64.4624C147.543 64.6994 148.173 65.0154 148.882 65.2524C147.386 68.0963 146.126 71.0982 145.339 74.1791C144.551 77.418 143.213 81.1309 143.528 84.5278C143.685 85.7918 144.945 85.5548 145.181 84.4488C146.362 77.971 148.96 72.1252 152.188 66.5163C152.661 69.3602 152.031 72.1252 154.314 74.9691C155.653 76.549 157.7 77.655 159.668 78.208C160.613 78.445 161.715 78.761 162.66 78.603C163.604 78.445 164.313 77.734 165.258 77.655C167.698 77.497 167.147 73.6261 166.045 72.4412C164.785 71.0192 162.66 70.2292 161.006 69.2812C160.14 68.8073 159.274 68.0963 158.329 67.7013C158.251 67.7013 158.172 67.6223 158.093 67.6223C158.093 67.5433 158.172 67.4643 158.093 67.3063C157.463 65.5684 156.597 62.9614 155.023 61.7765C156.44 59.7225 157.857 57.6686 159.432 55.6147C159.668 55.7727 159.904 55.8517 160.14 55.7727C160.219 56.3256 160.298 56.7996 160.376 57.3526C160.77 60.0385 161.557 62.8034 163.683 64.6994C165.336 66.2003 167.462 67.1483 169.588 67.4643C171.005 67.7013 173.839 67.5433 175.099 66.6743C176.044 66.0424 176.359 64.7784 176.123 63.6724C175.335 60.3545 171.792 59.0116 169.273 57.1946C167.777 56.0886 166.99 55.3777 166.203 53.7977C165.494 52.4548 164.864 50.9538 163.762 49.9268C164.943 48.5049 166.124 47.0039 167.226 45.582C167.541 45.187 167.856 44.792 168.25 44.397C169.037 44.713 169.982 44.95 170.69 45.424C171.871 46.2929 171.556 47.0829 172.029 48.3469C172.658 50.1638 173.525 51.9808 174.312 53.7187C175.099 55.5357 176.123 57.2736 177.619 58.5376C179.429 60.0385 181.083 60.0385 183.208 60.0385C185.728 60.0385 185.649 55.6147 184.626 54.1927C183.287 52.2968 181.476 51.6648 179.666 50.3218C178.091 49.1369 177.146 47.2409 176.123 45.661C174.942 43.844 173.446 41.4741 171.478 40.4471C172.737 39.0252 174.076 37.5242 175.414 36.1812C178.012 40.0521 179.114 44.634 184.389 45.661C188.405 46.4509 193.837 45.187 196.435 41.7901C197.223 40.7631 196.829 38.3932 195.412 38.3142C194.073 38.1562 192.656 37.9192 191.318 37.6822C189.035 37.3662 186.515 37.3662 184.232 36.9712C181.87 36.4972 179.429 35.4703 177.146 34.5223C178.406 33.2583 179.666 31.9944 180.925 30.7304C182.264 31.9154 183.051 33.4953 184.626 34.4433C186.279 35.3913 187.066 34.9963 188.72 34.7593C192.341 34.2063 195.018 34.3643 198.246 32.3104C199.033 31.8364 199.191 29.2295 197.931 29.4665C195.884 29.8614 194.073 30.5724 192.026 29.8614C190.452 29.3085 189.586 28.2815 188.247 27.5705C187.381 27.0965 186.515 26.5435 185.728 26.0696C186.358 25.5166 186.988 24.8846 187.617 24.3316C188.641 24.1736 189.743 23.8576 190.845 23.9366C193.522 24.1736 195.963 24.9636 198.64 24.6476C202.498 24.1736 207.3 21.1717 209.19 17.6958C209.505 17.0638 209.505 14.5359 208.166 15.1679C203.915 17.2218 199.191 17.3008 194.546 17.9328C195.884 16.6688 197.301 15.4049 198.64 14.1409C199.112 14.0619 199.191 13.9829 199.191 13.9039Z" fill="#9CA72C"/>
<path d="M168.092 249.712C169.667 250.186 171.242 250.581 172.895 250.423C176.202 250.107 178.17 247.579 180.138 245.209C182.894 241.891 188.877 234.465 186.2 229.804C185.964 229.33 185.334 229.172 184.941 229.567C181.791 232.806 178.8 236.203 175.808 239.521C173.997 241.575 172.659 243.945 169.667 244.261C167.935 244.419 166.281 244.261 164.628 244.261C164.707 242.918 164.707 241.575 164.707 240.153C169.509 240.469 173.21 234.228 175.336 230.594C176.044 229.409 176.359 228.145 176.831 226.881C177.304 225.617 178.17 224.511 178.485 223.168C178.957 220.798 178.012 218.824 177.461 216.691C177.383 216.296 177.068 215.506 176.595 215.427C176.516 215.427 176.359 215.348 176.28 215.348C175.65 215.269 175.178 215.743 175.178 216.375C175.099 217.481 175.021 219.535 174.548 220.324C173.84 221.509 171.871 223.01 170.769 223.958C169.194 225.38 167.935 226.96 167.069 228.856C166.203 230.831 165.494 232.174 164.471 233.438C164.313 232.095 164.077 230.673 163.762 229.409C165.809 228.856 166.99 226.802 167.699 224.827C168.565 222.22 167.777 220.087 167.147 217.56C166.124 213.452 165.337 209.818 162.424 206.5C161.872 205.868 161.479 206.579 161.479 207.132C161.321 209.976 162.739 212.662 162.817 215.506C162.896 217.086 163.526 219.614 163.29 221.114C163.29 220.64 162.502 221.588 162.109 222.062C161.951 221.746 161.715 221.351 161.558 221.035C161.164 220.482 160.534 220.087 160.062 219.614C159.983 219.535 159.432 218.982 159.196 218.745C159.117 218.429 158.802 217.56 158.723 217.402C158.408 216.691 158.015 216.059 157.542 215.427C156.834 214.558 155.889 213.61 154.944 212.978C154.236 212.504 153.369 212.583 152.897 213.452C152.031 215.032 152.031 216.612 152.503 218.271C152.74 219.14 153.055 219.85 153.369 220.64C153.448 220.166 153.448 220.324 153.448 221.035C153.448 221.667 153.527 222.22 153.763 222.773C154.236 224.353 155.18 225.617 156.204 226.881C156.755 227.513 157.306 228.145 157.936 228.619C158.408 229.014 158.959 229.172 159.432 229.409C160.062 232.332 160.377 235.334 160.455 238.415C159.511 238.099 158.566 237.941 157.542 237.467C156.519 236.993 155.731 236.124 154.787 235.571C153.999 235.097 153.055 234.781 152.346 234.149C150.693 232.727 151.008 232.885 150.22 231.147C149.669 229.962 149.354 229.093 148.173 228.54C147.15 228.066 146.756 229.883 146.992 230.515C147.071 230.673 147.15 230.831 147.15 230.831C147.15 231.068 147.071 231.305 147.071 231.463C147.071 232.49 147.307 233.517 147.465 234.544C147.78 236.282 148.882 237.783 149.984 239.126C150.693 239.995 151.559 240.469 152.425 241.101C153.291 241.733 154.078 242.523 154.944 243.155C156.597 244.34 158.487 244.34 160.219 245.13C160.219 245.13 160.219 245.13 160.298 245.13C160.062 247.658 159.668 250.186 159.196 252.714C158.33 252.319 157.464 252.082 156.519 251.687C155.023 251.134 153.606 250.265 152.11 249.87C152.031 249.633 151.795 249.317 151.795 249.238C151.716 249.001 151.48 248.369 151.322 247.974C150.929 247.105 150.456 246.157 149.354 246.157C148.173 246.157 148.252 248.132 148.724 248.764C148.567 248.606 148.882 249.396 148.961 249.712C149.039 250.028 149.118 251.687 149.118 250.66C149.197 252.793 149.512 254.53 150.771 256.347C151.952 258.006 154.629 260.139 157.149 260.771C156.755 261.956 156.361 263.141 155.968 264.326C155.18 263.852 154.393 263.457 153.527 263.141C151.086 262.193 148.409 261.403 146.047 260.139C142.19 258.085 142.19 253.424 139.04 250.897C138.411 250.423 137.938 251.134 137.859 251.687C137.466 253.819 138.017 256.663 138.253 258.796C138.647 262.035 140.3 265.59 142.583 267.96C144.552 270.014 147.701 271.989 150.535 271.673C151.952 271.515 152.74 270.725 153.606 270.093C152.346 272.779 150.85 275.228 149.197 277.598C145.024 277.282 140.772 276.65 137.623 273.885C136.127 272.542 134.553 271.594 132.978 270.33C131.482 269.224 131.01 267.328 130.222 265.748C129.75 264.8 128.49 264.01 127.782 265.353C125.341 269.856 125.971 276.492 131.01 278.941C133.608 280.205 136.915 279.731 139.67 280.284C142.032 280.758 144.63 280.679 147.15 280.521C146.52 281.39 145.89 282.259 145.181 283.207C144.079 284.629 142.819 285.972 141.481 287.156C141.324 286.998 141.166 286.761 141.009 286.682C137.23 284.313 133.844 283.207 129.593 282.18C127.388 281.627 125.971 281.232 124.239 279.889C122.349 278.467 122.349 277.361 121.247 275.386C120.617 274.359 119.436 274.517 118.806 275.465C115.027 281.153 118.491 287.314 123.688 290.316C126.68 291.975 129.041 291.501 132.191 290.869C133.608 290.553 135.104 290.948 136.6 291.264C135.025 292.449 133.45 293.634 131.955 294.819C130.301 296.162 128.569 297.426 126.758 298.611C126.601 298.058 126.365 297.584 125.971 297.189C123.058 294.424 118.728 293.871 115.027 292.607C112.114 291.58 110.618 290.553 109.752 287.393C109.437 286.13 109.28 284.787 108.808 283.523C108.65 283.207 108.335 282.97 108.02 283.207C104.005 286.367 106.918 294.503 109.28 297.742C111.327 300.586 114.791 302.798 118.413 303.43C116.996 304.141 115.5 304.852 114.004 305.563C111.484 303.667 108.886 302.166 105.737 301.929C103.847 301.771 101.8 301.297 100.068 300.507C98.6512 299.875 98.8874 299.006 98.1001 297.584C97.549 296.478 96.6042 295.293 95.2657 295.609C93.6911 294.74 92.9825 297.268 92.9825 298.769C92.9825 298.927 92.9038 299.085 92.9038 299.243C92.8251 299.954 92.8251 300.586 92.8251 301.297C92.9038 302.798 93.2187 304.378 93.9273 305.721C95.1083 308.091 96.6829 309.75 99.0449 310.698C99.6747 310.935 100.305 311.172 100.856 311.251C96.7616 313.226 94.321 316.149 91.1717 319.546C88.731 322.231 86.999 326.181 87.1564 329.894C87.2351 330.921 88.4161 331.474 88.5736 330.131C88.731 328.314 90.9355 325.865 92.1165 324.601C93.8486 322.784 95.8956 320.73 97.9426 319.23C101.564 316.544 106.524 315.438 110.855 313.937C110.54 314.648 110.303 315.438 110.146 316.228C109.437 319.861 110.146 324.285 113.61 326.26C115.972 327.603 118.255 327.761 120.696 326.418C122.507 325.391 123.688 324.759 125.814 325.391C127.231 325.786 127.939 326.418 129.356 326.023C130.616 325.707 130.144 323.337 129.278 322.863C127.939 322.152 127.152 321.441 125.656 321.125C124.16 320.809 122.743 320.414 121.247 320.098C119.987 319.783 119.279 319.783 118.413 318.835C118.334 318.756 118.098 318.44 117.862 318.045C119.043 315.754 119.594 312.91 118.964 310.461C121.641 309.118 124.239 307.696 126.758 306.195C126.758 306.432 126.758 306.669 126.837 306.906C126.994 308.802 127.624 310.382 128.49 312.041C130.459 315.833 132.427 316.86 136.521 317.65C139.67 318.282 143.371 317.413 146.362 316.149C148.331 315.359 149.748 314.095 152.031 314.016C153.527 313.937 155.023 314.332 156.44 314.648C157.778 314.885 157.7 311.883 156.676 311.488C154.157 310.461 151.716 310.066 149.039 310.461C144.788 311.093 142.032 308.881 138.174 307.617C137.072 307.222 135.34 307.222 134.395 306.669C133.214 306.037 132.821 304.062 132.348 302.877C132.348 302.798 132.269 302.798 132.269 302.719C135.655 300.428 138.883 297.979 142.032 295.451C142.111 295.609 142.111 295.767 142.19 295.925C142.268 296.083 142.347 296.241 142.426 296.32C142.426 297.584 142.505 298.769 142.977 300.033C144 302.798 146.756 304.141 149.354 305.168C155.102 307.38 161.636 304.141 166.754 301.771C167.856 301.297 167.777 298.69 166.36 298.611C165.1 298.532 164.156 298.927 162.975 299.085C161.164 299.401 159.668 299.085 157.936 298.769C155.416 298.295 152.976 297.347 150.614 296.32C149.905 296.004 148.252 295.609 147.543 295.056C147.78 295.135 147.386 294.029 147.228 293.713C146.992 293.081 146.52 292.449 146.047 291.817C148.094 289.842 149.984 287.63 151.716 285.182C151.874 286.446 151.874 287.709 152.267 288.973C153.291 292.37 155.416 294.029 158.723 295.056C161.243 295.846 164.471 294.819 166.833 293.871C168.328 293.239 169.746 292.37 171.241 291.817C173.21 291.106 175.178 291.027 177.068 290.158C177.934 289.763 177.855 287.393 176.753 287.63C174.155 288.025 171.478 288.499 168.88 288.736C166.124 289.052 163.447 288.025 160.849 286.919C160.062 286.525 158.723 285.972 158.015 285.419C156.834 284.392 156.834 283.207 156.125 281.864C155.81 281.311 155.416 280.679 154.944 280.126C155.889 278.467 156.755 276.808 157.621 275.07C157.621 275.228 157.621 275.386 157.7 275.544C157.936 276.887 158.487 277.993 159.432 279.02C161.872 281.785 165.337 282.338 168.801 281.627C172.344 280.916 174.312 278.862 177.383 277.282C179.508 276.176 182.421 275.386 183.917 273.49C184.39 272.937 184.311 271.041 183.366 270.883C181.634 270.567 180.374 271.436 178.721 271.989C176.28 272.779 173.761 273.648 171.163 273.411C168.722 273.253 165.1 272.7 162.817 271.594C161.479 270.962 160.77 270.409 159.668 270.172C159.825 269.856 159.904 269.54 160.062 269.224C160.377 268.908 160.534 268.434 160.534 267.96C161.006 266.538 161.479 265.116 161.872 263.773C161.951 263.536 161.951 263.378 162.03 263.141C162.187 263.536 162.424 263.931 162.66 264.247C166.675 269.54 174.233 264.326 177.934 261.245C181.24 258.48 186.83 256.11 186.2 250.976C186.122 250.344 185.492 249.791 184.941 250.186C180.611 253.582 175.729 256.268 170.061 256.821C168.092 256.979 165.573 255.715 163.605 256.347C164.077 253.898 164.471 251.371 164.707 248.922C165.652 249.159 166.833 249.317 168.092 249.712ZM116.287 316.702C116.366 316.702 116.366 316.702 116.366 316.702C116.366 316.702 116.366 316.702 116.287 316.702Z" fill="#9CA72C"/>
<path d="M72.2744 304.299C71.0147 304.457 70.3061 305.484 69.2826 306.116C67.7867 307.064 65.9758 307.775 64.3224 308.407C60.3071 309.829 56.4494 310.224 52.1979 309.987C51.8042 309.987 51.5679 310.066 51.3317 310.303C51.6467 306.985 51.6468 303.588 51.6468 300.27C51.6468 300.191 51.6468 300.191 51.6468 300.112C53.7726 299.875 56.9217 301.613 58.89 302.166C62.3542 303.193 65.4248 301.771 67.7867 299.243C71.3297 295.451 74.4788 287.63 73.2191 282.417C73.0617 281.864 72.3531 280.758 71.6445 281.548C70.3848 282.97 70.1487 284.786 68.9677 286.208C67.3931 288.183 64.795 289.684 62.6692 290.869C60.7009 291.975 58.1027 293.634 56.9217 294.266C55.1109 295.135 53.3001 295.925 51.568 296.952C51.4105 293.792 51.0955 290.632 50.5444 287.551C52.8276 289.052 55.2683 287.156 57.0004 285.34C57.9452 284.313 58.5751 283.128 59.4411 281.943C59.8348 281.469 60.2285 280.995 60.7009 280.6C60.8584 280.521 61.0158 280.442 61.4094 280.205C64.2438 278.625 65.5035 277.282 66.3695 273.885C67.1568 270.804 67.3929 267.328 66.6843 264.247C66.4482 263.22 65.1097 261.877 64.3224 263.378C63.1414 265.59 61.4094 266.617 60.2285 269.303C59.3624 271.278 58.4176 273.49 57.7091 275.623C55.1897 278.151 52.5915 280.521 49.9934 282.97C49.9146 283.049 49.8358 283.207 49.7571 283.286C49.0485 280.363 48.1826 277.44 47.0803 274.517C46.8441 273.885 46.6079 273.253 46.293 272.7C47.7889 271.673 49.7572 272.305 51.568 272.147C54.5598 271.752 56.3706 267.486 57.3154 265.037C59.3624 260.06 58.4964 254.53 56.3707 249.712C55.5834 247.816 54.0873 248.922 53.6937 250.344C53.2213 252.476 53.9299 254.846 53.1426 256.821C52.3553 258.954 50.3083 260.376 49.0486 262.193C48.1826 263.457 48.1825 264.721 47.5526 266.064C47.8676 267.091 47.5528 267.644 46.5293 267.644C46.1356 268.039 45.7418 268.276 45.1907 268.434C44.9545 268.592 44.7185 268.75 44.561 268.908C43.2226 266.064 41.6478 263.299 39.9157 260.692C40.5455 259.823 41.0179 258.875 41.884 258.243C42.9862 257.374 43.7735 257.611 45.0332 257.216C47.2377 256.584 48.34 254.372 49.2061 252.476C50.2296 250.265 50.7808 247.816 50.0722 245.446C49.836 244.656 49.5209 243.55 49.1273 242.839C48.6549 242.128 47.6314 241.417 47.3952 240.706C47.0802 239.679 45.8206 239.679 45.5057 240.785C45.3482 241.417 45.1908 242.049 45.112 242.681C45.0333 243.155 44.6397 245.051 44.9547 244.498C44.0886 246.473 42.5926 248.29 41.4903 250.186C40.3881 252.161 39.2072 253.977 38.0262 255.873C37.7113 256.347 37.475 256.821 37.3176 257.295C36.4515 256.189 35.5856 255.162 34.7196 254.135C34.1685 253.582 33.6173 253.029 33.0661 252.476C33.2236 252.318 33.3811 252.16 33.5386 251.844C35.8218 248.527 38.7347 246.078 39.9157 242.207C41.0179 238.652 41.7266 233.28 39.2072 230.12C38.3411 229.014 36.9239 228.856 36.1366 230.199C34.562 232.885 34.7982 235.966 34.9556 238.889C35.1131 241.417 34.1685 242.128 32.7513 244.024C31.964 245.13 31.0979 246.236 30.3894 247.421C29.9957 248.053 29.917 248.922 29.9957 249.87C28.5785 248.685 27.0826 247.5 25.5867 246.315C25.7441 246.236 25.8228 246.078 25.9015 245.762C26.3739 243.866 28.1847 243.392 29.287 242.128C30.3892 240.864 30.9404 239.205 31.0979 237.546C31.4128 233.754 30.5468 229.646 28.8147 226.328C28.3423 225.38 27.1614 224.59 26.4528 225.933C23.9334 230.673 23.6184 235.729 25.9803 240.39C25.6654 241.97 24.3269 243.471 24.3269 245.209C24.3269 245.288 24.327 245.446 24.4057 245.525C23.0673 244.577 21.5714 243.866 20.0755 243.155C22.1225 239.205 22.0438 234.544 20.3117 230.515C19.052 227.434 16.7688 225.775 15.0367 223.089C14.4856 222.22 13.462 222.615 13.2258 223.484C12.7535 225.064 13.0684 226.091 13.777 227.513C14.3281 228.619 14.9579 229.409 15.2728 230.673C15.4302 231.147 15.5091 231.621 15.5878 232.095C15.1154 233.359 14.8005 234.781 14.5643 236.203C13.3046 235.65 11.8086 235.65 10.7851 234.702C9.60412 233.675 9.2892 231.384 8.42315 230.041C7.71458 228.777 7.16354 227.671 5.74637 226.96C4.25048 226.17 3.93551 229.172 4.32917 229.962C5.74633 232.964 6.06126 236.598 8.26577 239.205C9.44674 240.627 10.7852 240.943 12.4385 241.496C11.6512 241.812 10.7851 242.286 9.99778 242.523C7.32093 243.313 4.25037 243.708 1.49477 243.866C0.235064 243.945 0.313873 245.999 0.786261 246.71C2.75454 249.475 6.61238 250.581 9.84039 250.028C11.5725 249.712 13.1471 249.001 14.4068 247.816C15.3516 246.868 15.9027 245.92 16.5326 244.814C17.9497 246.078 19.4455 247.184 21.0202 248.527C21.3351 248.764 21.65 249.08 21.9649 249.396C19.603 250.818 16.9261 251.213 14.0918 251.529C11.4149 251.844 9.13173 252.713 6.84853 254.214C6.45487 254.372 6.13999 254.767 5.9038 255.241C5.9038 255.241 5.90372 255.32 5.82499 255.32C5.43134 256.347 5.58884 257.848 6.45488 258.638C9.36793 261.324 13.1472 260.455 15.8241 258.006C17.6349 256.347 19.2094 255.32 21.2564 253.977C22.5161 253.187 23.3822 252.397 24.012 251.292C25.2717 252.397 26.4528 253.503 27.6338 254.688C27.0826 256.189 26.2952 257.769 25.4292 258.717C24.2482 259.981 22.9099 260.218 21.3352 260.692C18.4222 261.482 15.3515 262.114 13.3045 264.484C12.3597 265.59 12.0449 268.434 13.777 269.066C17.7923 270.409 21.3352 269.066 23.6972 265.748C25.7442 262.825 27.7123 259.665 29.0508 256.268C30.3892 257.69 31.6489 259.191 32.8299 260.771C30.7041 262.746 29.6806 265.748 27.8698 268.039C26.8463 269.303 25.6653 271.436 24.1694 272.226C22.3586 273.174 20.7052 273.016 19.0519 274.438C18.1858 275.149 18.1859 277.282 19.1307 277.993C20.784 279.178 22.9099 279.02 24.8782 278.467C27.0039 277.914 27.9486 276.413 29.1296 274.754C30.3105 273.095 31.4914 271.357 32.4362 269.461C33.381 267.486 33.8535 265.353 34.7196 263.457C36.5304 266.222 38.105 269.145 39.4435 272.147C34.9558 273.49 32.6724 276.966 29.8381 280.679C27.9485 283.207 25.5867 284.944 22.2799 285.023C20.4691 285.102 18.8158 283.681 17.1624 284.076C16.6113 284.234 16.4537 285.103 16.4537 285.576C16.5325 288.262 18.1072 288.894 20.0755 290.237C22.5161 291.975 25.1142 293.634 28.2634 292.449C31.0978 291.343 33.4599 288.736 34.7196 286.05C36.6091 282.101 35.9792 277.361 40.7818 275.307C42.1202 278.546 43.3013 281.864 44.1673 285.261C39.5222 287.393 38.8922 295.688 32.8299 295.451C29.6806 295.372 29.9168 302.166 32.9873 302.561C36.5302 302.956 39.3646 301.376 41.0967 298.295C42.0414 296.636 42.3564 294.74 43.2224 293.081C43.7735 291.975 44.5609 291.343 45.5057 290.79C45.9781 293.081 46.2931 295.451 46.5293 297.821C46.608 298.295 46.6079 298.848 46.6867 299.322C43.6161 300.27 41.0967 303.114 38.8135 305.089C36.6091 306.985 35.6643 309.118 32.6725 309.829C30.2318 310.382 28.2635 309.592 25.8229 310.54C24.8781 310.935 24.9569 312.673 25.6655 313.226C29.2871 316.07 34.1684 317.808 38.0262 314.411C39.9945 312.673 40.9392 310.066 42.4351 308.012C43.6161 306.353 45.1908 305.089 47.0803 304.22C47.3952 309.908 47.2379 315.675 45.742 321.125C45.427 322.31 46.8441 325.786 47.8676 323.574C49.3635 320.414 50.3083 316.939 50.7807 313.463V313.542C51.8042 315.912 54.4811 317.65 56.3707 319.229C59.1263 321.441 62.7478 320.572 65.6608 318.992C69.2825 316.939 74.7937 310.777 73.534 306.195C73.6127 305.247 73.1404 304.141 72.2744 304.299Z" fill="#9CA72C"/>
</svg>
