<svg width="16" height="16" viewBox="0 0 16 16" fill="none" xmlns="http://www.w3.org/2000/svg">
<path d="M15.5781 12.988L13.3286 10.7384C13.0891 10.4999 12.773 10.3538 12.4362 10.3261C12.0993 10.2983 11.7635 10.3906 11.4883 10.5867L10.9416 10.0401C11.9361 8.8146 12.4222 7.2541 12.2996 5.68062C12.177 4.10715 11.455 2.64078 10.2827 1.58413C9.1104 0.527471 7.57718 -0.0388356 5.99947 0.00207136C4.42176 0.0429783 2.91995 0.687977 1.80396 1.80396C0.687977 2.91995 0.0429783 4.42176 0.00207136 5.99947C-0.0388356 7.57719 0.527471 9.1104 1.58413 10.2827C2.64078 11.455 4.10715 12.177 5.68062 12.2996C7.25409 12.4222 8.81459 11.9361 10.0401 10.9416L10.5867 11.4883C10.3906 11.7636 10.2983 12.0993 10.3261 12.4362C10.3538 12.773 10.4999 13.0891 10.7384 13.3286L12.988 15.5781C13.121 15.7118 13.2791 15.8179 13.4532 15.8903C13.6273 15.9627 13.814 16 14.0026 16C14.1912 16 14.3779 15.9627 14.552 15.8903C14.7261 15.8179 14.8842 15.7118 15.0172 15.5781L15.5896 15.0057C15.8546 14.7361 16.0021 14.3726 16 13.9945C15.9979 13.6165 15.8462 13.2546 15.5781 12.988ZM2.69896 9.61366C1.7824 8.69671 1.26763 7.45322 1.2679 6.15673C1.26817 4.86024 1.78345 3.61696 2.7004 2.7004C3.61734 1.78383 4.86083 1.26906 6.15732 1.26933C7.45381 1.2696 8.69709 1.78488 9.61365 2.70183C10.5003 3.62448 10.9899 4.85804 10.9772 6.13763C10.9645 7.41722 10.4505 8.64081 9.54566 9.54566C8.64081 10.4505 7.41722 10.9645 6.13763 10.9772C4.85804 10.9899 3.62448 10.5004 2.70183 9.61366H2.69896ZM14.6795 14.1156L14.1071 14.6881C14.075 14.7138 14.0351 14.7279 13.994 14.7279C13.9529 14.7279 13.913 14.7138 13.8809 14.6881L11.6314 12.4385C11.6063 12.4067 11.5927 12.3674 11.5927 12.3269C11.5927 12.2864 11.6063 12.2471 11.6314 12.2153L12.2038 11.6428C12.2184 11.6281 12.2358 11.6165 12.255 11.6086C12.2741 11.6007 12.2947 11.5968 12.3154 11.597C12.3362 11.5966 12.3568 11.6005 12.376 11.6084C12.3952 11.6162 12.4126 11.628 12.427 11.6428L14.6766 13.8924C14.706 13.9219 14.7228 13.9618 14.7233 14.0034C14.7238 14.0451 14.7081 14.0854 14.6795 14.1156Z" fill="#323232"/>
</svg>
