<svg width="46" height="43" viewBox="0 0 46 43" fill="none" xmlns="http://www.w3.org/2000/svg">
<path d="M8.59375 0.289078C8.36328 0.316422 8.14844 0.417985 7.98438 0.578141C7.98438 0.578141 0.410156 7.6172 0.410156 16.1406C0.410156 20.6836 2.18359 25.1485 6.69922 27.9492C7.1875 29.9688 7.54297 31.7891 7.27735 33.4024C7.1836 33.7774 7.3125 34.1719 7.60547 34.4258C7.89844 34.6758 8.3125 34.7422 8.66797 34.5938C9.02734 34.4453 9.26953 34.1094 9.30078 33.7227C9.85547 30.3281 8.5 27.0977 7.72656 23.5195C6.95313 19.9414 6.65235 16.043 8.88281 11.1367C9.03906 10.8164 9.01953 10.4375 8.82422 10.1367C8.63672 9.83986 8.3086 9.65627 7.95313 9.66017C7.54297 9.66798 7.17188 9.92189 7.01953 10.3008C4.58203 15.6641 4.92188 20.1602 5.73828 23.9375C5.80469 24.2539 5.89063 24.5313 5.96094 24.836C3.4336 22.5156 2.46484 19.4688 2.46484 16.1406C2.46484 9.64064 7.48828 4.17189 8.65625 2.95314C9.68359 4.13283 12.8906 7.94142 13.5977 12.2266C14.0781 15.1445 13.2969 17.625 12.2813 19.4766C11.7773 20.4024 11.2148 21.168 10.7422 21.7227C10.2695 22.2774 9.83203 22.6797 9.78125 22.7188C9.4375 22.918 9.24219 23.293 9.27344 23.6836C9.30469 24.082 9.5586 24.418 9.92969 24.5625C10.293 24.7031 10.7109 24.6211 11 24.3555C11.3203 24.1133 11.7617 23.7188 12.3164 23.0703C12.8672 22.4219 13.4922 21.543 14.0781 20.4727C15.25 18.332 16.1875 15.3672 15.6211 11.9063C14.6328 5.91408 9.42578 0.613297 9.42578 0.613297C9.21485 0.382828 8.90625 0.265641 8.59375 0.289078ZM27.0078 17.8086C26.3047 17.8086 25.5898 17.8555 24.8594 17.9375C17.0898 18.7813 13.4648 23.1133 12.0586 27.1445C10.6523 31.1758 11.2578 34.9727 11.2578 34.9727C11.2578 34.9844 11.2578 34.9961 11.2578 35.0078C8.10938 38.3008 6.69922 41.1992 6.69922 41.1992C6.48438 41.5313 6.47656 41.9609 6.67969 42.2969C6.88672 42.6367 7.27344 42.8281 7.67188 42.7813C8.0625 42.7383 8.40234 42.4727 8.52734 42.0977C8.52734 42.0977 12.1797 34.582 21.0742 30.3867C27.1406 27.5235 35 28.3985 35 28.3985C35.3828 28.4961 35.793 28.3633 36.0469 28.0547C36.2969 27.75 36.3555 27.3242 36.1836 26.9649C36.0117 26.6055 35.6523 26.375 35.2539 26.375C35.2539 26.375 33.1875 26.1094 30.2813 26.2461C27.3789 26.3828 23.6172 26.918 20.207 28.5235C17.3906 29.8516 15.0664 31.4844 13.1797 33.1445C13.1523 31.8477 13.2539 29.9063 13.9844 27.8203C15.2031 24.336 17.9688 20.7656 25.0859 19.9922C34.5391 18.9649 41.8477 25.6563 43.2461 27.0156C42.2461 28.7774 36.6094 37.9922 26.1445 39.1445C20.2969 39.7852 15.1719 37.0586 15.1719 37.0586C14.8438 36.832 14.4219 36.8125 14.0703 37.0039C13.7266 37.1992 13.5273 37.5781 13.5547 37.9727C13.582 38.3711 13.8398 38.7109 14.207 38.8555C14.207 38.8555 19.7734 41.8906 26.3672 41.168C39.1484 39.7578 45.457 27.2735 45.457 27.2735C45.6524 26.8945 45.5859 26.4336 45.2969 26.1172C45.2969 26.1172 37.5938 17.8047 27.0078 17.8086Z" fill="#3E7A59"/>
</svg>
