<svg width="52" height="52" viewBox="0 0 52 52" fill="none" xmlns="http://www.w3.org/2000/svg">
<g clip-path="url(#clip0)">
<path d="M10.3466 0.994137L11.1873 3.35796C11.2233 3.45913 11.2946 3.53934 11.3845 3.57985L13.4846 4.52604C13.7813 4.65969 13.7813 5.13244 13.4846 5.26609L11.3845 6.21228C11.2945 6.25279 11.2233 6.333 11.1873 6.43416L10.3466 8.79799C10.2278 9.13197 9.8078 9.13197 9.68909 8.79799L8.84837 6.43416C8.81238 6.3329 8.74109 6.25279 8.65126 6.21228L6.55112 5.26609C6.25444 5.13244 6.25444 4.65969 6.55112 4.52604L8.65126 3.57985C8.74119 3.53934 8.81238 3.45913 8.84837 3.35796L9.68909 0.994137C9.8079 0.660157 10.2279 0.660157 10.3466 0.994137ZM45.3315 6.93528L45.955 8.6887C45.9817 8.7638 46.0345 8.82326 46.1013 8.85334L47.6592 9.55518C47.8793 9.65435 47.8793 10.005 47.6592 10.1041L46.1013 10.806C46.0346 10.8361 45.9818 10.8955 45.955 10.9706L45.3315 12.724C45.2433 12.9718 44.9318 12.9718 44.8437 12.724L44.2201 10.9706C44.1935 10.8955 44.1405 10.8361 44.0738 10.806L42.5159 10.1041C42.2959 10.005 42.2959 9.65435 42.5159 9.55518L44.0738 8.85334C44.1405 8.82326 44.1935 8.7638 44.2201 8.6887L44.8437 6.93528C44.9318 6.68763 45.2434 6.68763 45.3315 6.93528Z" fill="#3E7A59"/>
<path d="M21.8464 9.06653C21.9235 8.29168 21.3578 7.60106 20.583 7.52399C19.8081 7.44693 19.1175 8.01259 19.0404 8.78744C18.9634 9.56229 19.529 10.2529 20.3039 10.33C21.0787 10.407 21.7693 9.84137 21.8464 9.06653Z" fill="#3E7A59"/>
<path d="M25.1753 27.468C20.2509 27.468 15.6149 27.0207 12.1212 26.2086C8.26463 25.3121 6.30908 24.1066 6.30908 22.6254C6.30908 21.1442 8.26453 19.9386 12.1212 19.0421C15.6149 18.23 20.251 17.7827 25.1753 17.7827C30.0995 17.7827 34.7355 18.23 38.2295 19.0421C42.086 19.9386 44.0415 21.1442 44.0415 22.6254C44.0415 24.1066 42.0861 25.3121 38.2295 26.2086C34.7355 27.0207 30.0995 27.468 25.1753 27.468ZM25.1753 18.9738C20.339 18.9738 15.7987 19.41 12.3908 20.2023C8.53013 21.0997 7.50012 22.1476 7.50012 22.6254C7.50012 23.1031 8.53013 24.1511 12.3908 25.0484C15.7988 25.8406 20.339 26.277 25.1753 26.277C30.0115 26.277 34.5518 25.8407 37.9597 25.0484C41.8203 24.151 42.8503 23.1031 42.8503 22.6254C42.8503 22.1476 41.8203 21.0997 37.9597 20.2023C34.5517 19.41 30.0115 18.9738 25.1753 18.9738ZM31.0587 45.219C30.223 45.219 29.4602 44.8491 29.0631 44.1617C28.4242 43.0551 28.972 41.5385 30.2841 40.781C31.5962 40.0236 33.1834 40.3073 33.8224 41.4139V41.414C34.4613 42.5206 33.9136 44.0372 32.6014 44.7947C32.1046 45.0814 31.568 45.219 31.0587 45.219ZM31.8346 41.5463C31.5268 41.5463 31.1902 41.6331 30.8797 41.8124C30.149 42.2343 29.7894 43.0374 30.0947 43.5661C30.3999 44.0948 31.2751 44.185 32.0061 43.7631C32.7368 43.3412 33.0963 42.5381 32.791 42.0094V42.0095C32.6154 41.7053 32.2512 41.5463 31.8346 41.5463ZM37.3788 40.4255C36.7914 40.4255 36.2635 40.2167 35.8703 39.8236C35.4147 39.3679 35.2065 38.731 35.2844 38.03C35.3567 37.3788 35.673 36.7437 36.1747 36.242C37.2459 35.1708 38.8525 35.034 39.7562 35.9376H39.7563C40.6598 36.8412 40.5232 38.4478 39.4518 39.5192C38.9501 40.0209 38.3151 40.3371 37.6639 40.4095C37.5675 40.4202 37.4725 40.4255 37.3788 40.4255ZM38.2449 36.5287C37.841 36.5287 37.3789 36.7223 37.0171 37.0843C36.7102 37.3912 36.5102 37.7838 36.4683 38.1617C36.4312 38.4957 36.5179 38.7867 36.7127 38.9814C36.9073 39.1762 37.1985 39.263 37.5325 39.2259C37.9104 39.1839 38.303 38.9838 38.6098 38.6771C39.2064 38.0805 39.3459 37.2118 38.9143 36.78C38.7443 36.6101 38.5068 36.5287 38.2449 36.5287ZM12.0345 36.641C11.7056 36.641 11.439 36.3744 11.439 36.0454V34.5417C11.439 34.2129 11.7056 33.9463 12.0345 33.9463C12.3633 33.9463 12.6299 34.2129 12.6299 34.5417V36.0454C12.6299 36.3744 12.3633 36.641 12.0345 36.641ZM19.8657 38.1948C19.5368 38.1948 19.2702 37.9282 19.2702 37.5992V36.0955C19.2702 35.7667 19.5368 35.5 19.8657 35.5C20.1946 35.5 20.4612 35.7666 20.4612 36.0955V37.5992C20.4613 37.9282 20.1946 38.1948 19.8657 38.1948ZM16.0122 41.4888C15.6834 41.4888 15.4167 41.2222 15.4167 40.8934V39.3896C15.4167 39.0608 15.6833 38.7941 16.0122 38.7941C16.3411 38.7941 16.6077 39.0608 16.6077 39.3896V40.8934C16.6077 41.2222 16.3411 41.4888 16.0122 41.4888Z" fill="#3E7A59"/>
<path d="M51.1111 33.899L48.8184 32.7775C49.6065 30.1518 50.0171 27.3814 50.0177 24.5432C50.0182 21.8569 48.3459 19.4708 45.1816 17.643C40.7782 15.0996 33.301 13.5809 25.1803 13.5806C25.1793 13.5806 25.1786 13.5806 25.1776 13.5806C17.0583 13.5806 9.58078 15.0984 5.17517 17.6408C2.00763 19.4688 0.333021 21.8556 0.33252 24.5429C0.331116 31.6642 2.9056 38.3631 7.58171 43.4057C12.2767 48.4687 18.5248 51.257 25.175 51.257C31.8247 51.257 38.072 48.4686 42.7663 43.4057C43.8544 42.232 44.8273 40.9676 45.6821 39.6299L46.9372 40.62C47.1192 40.7636 47.3359 40.8333 47.5512 40.8333C47.8446 40.8333 48.1352 40.7038 48.331 40.4555C48.6705 40.0251 48.5969 39.4011 48.1665 39.0616L46.6972 37.9024C47.2582 36.8611 47.7521 35.7827 48.1747 34.6726L50.2388 35.6823C50.3791 35.7509 50.5277 35.7834 50.674 35.7834C51.0412 35.7834 51.3942 35.5788 51.5664 35.2268C51.8074 34.7343 51.6035 34.1398 51.1111 33.899ZM47.2259 22.6255C47.2259 24.3551 44.9562 26.1094 40.9989 27.4383C36.7811 28.8546 31.1614 29.6346 25.1751 29.6346C19.1888 29.6346 13.5691 28.8546 9.35127 27.4383C5.39385 26.1094 3.12427 24.3551 3.12427 22.6255C3.12427 22.3147 3.19877 22.003 3.34205 21.6932C3.98454 20.8556 4.92712 20.076 6.16749 19.3601C8.48158 18.0247 11.7396 16.9918 15.5317 16.3432C18.5025 15.8676 21.7797 15.6163 25.1751 15.6163C28.5904 15.6163 31.8859 15.8706 34.8704 16.3518C38.6437 17.0012 41.8852 18.0314 44.1887 19.362C45.425 20.0761 46.365 20.8537 47.0063 21.6889C47.1508 22.0001 47.2259 22.3132 47.2259 22.6255ZM45.1011 36.6431L43.8912 35.6886C43.4609 35.3492 42.8368 35.4227 42.4974 35.8531C42.1579 36.2835 42.2315 36.9076 42.6619 37.2471L44.1051 38.3856C39.9908 44.9499 33.0404 49.2718 25.1752 49.2718C19.0837 49.2718 13.3525 46.7092 9.03745 42.0558C4.70293 37.3815 2.31645 31.1621 2.31775 24.5432C2.31775 24.4255 2.32276 24.3088 2.33199 24.1927C3.20308 25.8791 5.48499 27.3962 8.97227 28.5672C13.3091 30.0236 19.0634 30.8256 25.1752 30.8256C31.287 30.8256 37.0414 30.0236 41.3782 28.5672C44.8656 27.3961 47.1476 25.8789 48.0186 24.1924C48.0278 24.3084 48.0327 24.4252 48.0327 24.5428C48.0322 27.0997 47.6713 29.5673 47.002 31.889L46.2195 31.5062C45.7269 31.2651 45.1326 31.4693 44.8918 31.9617C44.651 32.4541 44.8549 33.0485 45.3474 33.2894L46.3719 33.7905C46.0035 34.7743 45.5785 35.7266 45.1011 36.6431Z" fill="#3E7A59"/>
<path d="M8.42498 36.2326C8.17091 36.2326 7.91694 36.1357 7.72303 35.9418C7.16747 35.3859 6.65211 34.7572 6.14768 34.0197C5.83817 33.5672 5.95407 32.9496 6.40656 32.6402C6.85915 32.3307 7.47658 32.4467 7.78609 32.8991C8.22044 33.5341 8.65899 34.0703 9.12693 34.5384C9.51445 34.926 9.51435 35.5545 9.12663 35.9421C8.93282 36.1358 8.67885 36.2326 8.42498 36.2326ZM5.35579 31.5769C4.9795 31.5769 4.61976 31.3618 4.45282 30.9973C4.28628 30.6337 4.16486 30.3481 4.05898 30.0716C3.86306 29.5596 4.11934 28.9858 4.63129 28.7899C5.14334 28.594 5.71715 28.8503 5.91296 29.3622C6.0031 29.5979 6.10928 29.8472 6.25757 30.1709C6.48587 30.6693 6.26679 31.2583 5.76838 31.4865C5.63453 31.5479 5.49406 31.5769 5.35579 31.5769Z" fill="#3E7A59"/>
</g>
<defs>
<clipPath id="clip0">
<rect width="51.3352" height="51.3352" fill="white" transform="translate(0.33252 0.33252)"/>
</clipPath>
</defs>
</svg>
